<?xml version="1.0" encoding="UTF-8" standalone="no"?>
<svg
   xmlns:dc="http://purl.org/dc/elements/1.1/"
   xmlns:cc="http://creativecommons.org/ns#"
   xmlns:rdf="http://www.w3.org/1999/02/22-rdf-syntax-ns#"
   xmlns:svg="http://www.w3.org/2000/svg"
   xmlns="http://www.w3.org/2000/svg"
   xmlns:sodipodi="http://sodipodi.sourceforge.net/DTD/sodipodi-0.dtd"
   xmlns:inkscape="http://www.inkscape.org/namespaces/inkscape"
   width="1920"
   height="1080"
   id="svg483"
   version="1.1"
   inkscape:version="0.91 r13725"
   sodipodi:docname="teams.svg">
  <metadata
     id="metadata660">
    <rdf:RDF>
      <cc:Work
         rdf:about="">
        <dc:format>image/svg+xml</dc:format>
        <dc:type
           rdf:resource="http://purl.org/dc/dcmitype/StillImage" />
      </cc:Work>
    </rdf:RDF>
  </metadata>
  <sodipodi:namedview
     pagecolor="#ffffff"
     bordercolor="#666666"
     borderopacity="1"
     objecttolerance="10"
     gridtolerance="10"
     guidetolerance="10"
     inkscape:pageopacity="0"
     inkscape:pageshadow="2"
     inkscape:window-width="2560"
     inkscape:window-height="1404"
     id="namedview658"
     showgrid="false"
     inkscape:zoom="0.94479167"
     inkscape:cx="990.6946"
     inkscape:cy="469.02775"
     inkscape:window-x="0"
     inkscape:window-y="36"
     inkscape:window-maximized="1"
     inkscape:current-layer="layer3" />
  <defs
     id="defs485">
    <filter
       id="a"
       width="1.24"
       height="1.24"
       x="-.12"
       y="-.12">
      <feGaussianBlur
         stdDeviation="13"
         id="feGaussianBlur488" />
    </filter>
  </defs>
  <g
     fill="#666"
     id="g490">
    <path
       fill="#4285f4"
       d="M-459.91-379.668h81.105v81.105h-81.104v-81.105z"
       id="path492" />
    <path
       fill="#333"
       d="M-324.735-379.668c2.478 0 4.505-2.018 4.505-4.506 0-2.487-2.027-4.505-4.505-4.505h-18.024v-9.01h18.03c2.48 0 4.51-2.02 4.51-4.5s-2.02-4.5-4.5-4.5h-18.02v-4.5c0-2.49-2.02-4.5-4.5-4.5h-4.5v-18.02c0-2.48-2.02-4.5-4.5-4.5s-4.5 2.02-4.5 4.51v18.02h-9.01v-18.02c0-2.48-2.03-4.5-4.5-4.5s-4.5 2.02-4.5 4.507v18.02h-9.01v-18.02c0-2.49-2.03-4.51-4.51-4.51s-4.504 2.02-4.504 4.506v18.024h-9.014v-18.02c0-2.49-2.03-4.508-4.505-4.508s-4.504 2.02-4.504 4.5v18.02h-9.012v-18.02c0-2.486-2.02-4.505-4.502-4.505s-4.502 2.02-4.502 4.5v18.02h-9.01v-18.02c0-2.486-2.02-4.505-4.505-4.505s-4.505 2.02-4.505 4.51v18.025h-9.01v-18.02c0-2.49-2.02-4.507-4.51-4.507s-4.5 2.02-4.5 4.5v18.02h-9.01v-18.02c0-2.49-2.02-4.508-4.51-4.508-2.49 0-4.507 2.02-4.507 4.503v18.026h-4.502c-2.483 0-4.502 2.02-4.502 4.51v4.51h-18.02c-2.485 0-4.504 2.02-4.504 4.505s2.02 4.504 4.506 4.504h18.026v9.01h-18.03c-2.49 0-4.508 2.02-4.508 4.505 0 2.49 2.02 4.508 4.507 4.508h18.02v9.01h-18.02c-2.49 0-4.503 2.02-4.503 4.51 0 2.49 2.02 4.51 4.508 4.51h18.03v9.01h-18.03c-2.49 0-4.505 2.02-4.505 4.506s2.02 4.51 4.5 4.51h18.02v9.01h-18.023c-2.485 0-4.504 2.02-4.504 4.5s2.02 4.5 4.51 4.5h18.02v9.01h-18.02c-2.48 0-4.5 2.03-4.5 4.51s2.02 4.503 4.51 4.503h18.023v9.01h-18.02c-2.49 0-4.507 2.03-4.507 4.507 0 2.48 2.02 4.51 4.506 4.51h18.025v9.01h-18.03c-2.49 0-4.507 2.03-4.507 4.51 0 2.477 2.02 4.5 4.5 4.5h18.026v4.5c0 2.48 2.02 4.508 4.5 4.508h4.502v18.02c0 2.48 2.02 4.51 4.51 4.51 2.49 0 4.51-2.027 4.51-4.505v-18.02h9.01v18.025c0 2.48 2.02 4.506 4.502 4.506s4.51-2.024 4.51-4.502v-18.03h9.01v18.02c0 2.48 2.02 4.51 4.51 4.51s4.508-2.03 4.508-4.506v-18.03h9.01v18.026c0 2.48 2.02 4.505 4.505 4.505s4.505-2.03 4.505-4.51v-18.02h9.01v18.02c0 2.48 2.03 4.51 4.505 4.51 2.48 0 4.507-2.02 4.507-4.5v-18.02h9.01v18.03c0 2.48 2.03 4.51 4.51 4.51 2.475 0 4.5-2.026 4.5-4.504v-18.02h9.015v18.024c0 2.48 2.024 4.504 4.5 4.504 2.48 0 4.51-2.025 4.51-4.503v-18.03h9.01v18.022c0 2.475 2.03 4.503 4.507 4.503s4.51-2.028 4.51-4.506v-18.02h4.51c2.48 0 4.51-2.022 4.51-4.5v-4.505h18.024c2.48 0 4.506-2.023 4.506-4.5 0-2.48-2.03-4.51-4.508-4.51h-18.03v-9.013h18.025c2.48 0 4.505-2.03 4.505-4.507 0-2.48-2.024-4.505-4.502-4.505h-18.03v-9.014h18.023c2.474 0 4.5-2.03 4.5-4.51s-2.027-4.505-4.505-4.505h-18.02v-9.01h18.03c2.477 0 4.504-2.03 4.504-4.507s-2.025-4.506-4.503-4.506h-18.03v-9.01h18.027c2.48 0 4.507-2.02 4.507-4.51 0-2.49-2.03-4.508-4.507-4.508h-18.03v-9.01h18.03c2.48 0 4.51-2.02 4.51-4.507 0-2.49-2.027-4.51-4.505-4.51h-18.05v-9.01h18.03zm-45.058 85.61c0 2.48-2.028 4.506-4.506 4.506h-90.11c-2.48 0-4.5-2.027-4.5-4.506v-90.116c0-2.487 2.02-4.505 4.51-4.505h90.12c2.48 0 4.51 2.02 4.51 4.51v90.12z"
       id="path494" />
    <text
       x="427.263"
       y="-138.678"
       fill="#4285f4"
       style="line-height:125%"
       font-size="28.504"
       letter-spacing="0"
       word-spacing="0"
       font-family="Sans"
       transform="translate(0,27.637817) matrix(2.8322156,0,0,2.8322156,-1630.1672,243.33015)"
       id="text496">
      <tspan
         x="427.263"
         y="-138.678"
         style="text-align:center;-inkscape-font-specification:Just Another Hand"
         text-anchor="middle"
         font-family="Just Another Hand"
         id="tspan498">Service Worker</tspan>
    </text>
  </g>
  <g
     fill="#666"
     id="g500">
    <path
       fill="#333"
       d="M-189.347-389.705v120.153c0 16.336 13.228 29.564 29.552 29.564h139.127c16.334 0 29.576-13.226 29.576-29.564v-120.153c0-16.313-13.242-29.55-29.576-29.55h-6.065v-17.786c0-4.98-4.032-9-9-9-4.97 0-9.01 4.02-9.01 9v36.21c0 4.44-3.596 8.03-8.034 8.03-4.417 0-7.995-3.59-7.995-8.04v-18.43H-76.37v-17.79c0-4.98-4.027-9-8.995-9-4.986 0-9.002 4.02-9.002 9v36.21c0 4.44-3.58 8.03-8.033 8.03-4.417 0-7.998-3.59-7.998-8.04v-18.43h-15.393v-17.79c0-4.97-4.05-9-9-9-4.99 0-9.01 4.03-9.01 9v36.22c0 4.44-3.58 8.03-8.02 8.03-4.43 0-8.01-3.59-8.01-8.04v-18.43c-16.3.02-29.52 13.24-29.52 29.55zm176.748 116.5c0 5.256-4.26 9.516-9.52 9.516h-134.95c-5.25 0-9.53-4.26-9.53-9.51v-77.47h154.01v77.47z"
       id="path502" />
    <text
       x="541.601"
       y="-187.911"
       fill="#4285f4"
       style="line-height:125%"
       transform="translate(0,27.637817) matrix(2.8322156,0,0,2.8322156,-1630.1672,243.33015) scale(0.95960366,1.0420969)"
       font-size="21.221"
       letter-spacing="0"
       word-spacing="0"
       font-family="Sans"
       id="text504">
      <tspan
         x="541.601"
         y="-187.911"
         style="-inkscape-font-specification:Impact Bold"
         font-weight="bold"
         font-family="Impact"
         id="tspan506">EVENT</tspan>
    </text>
    <text
       x="543.475"
       y="-138.678"
       fill="#4285f4"
       style="line-height:125%"
       font-size="28.504"
       letter-spacing="0"
       word-spacing="0"
       font-family="Sans"
       transform="translate(0,27.637817) matrix(2.8322156,0,0,2.8322156,-1630.1672,243.33015)"
       id="text508">
      <tspan
         x="543.475"
         y="-138.678"
         style="text-align:center;-inkscape-font-specification:Just Another Hand"
         text-anchor="middle"
         font-family="Just Another Hand"
         id="tspan510">event</tspan>
    </text>
  </g>
  <g
     fill="#666"
     id="g512">
    <path
       fill="#4285f4"
       d="M200.48-373.506h16.184v125.428H200.48z"
       id="path514" />
    <path
       fill="#4285f4"
       d="M147.884-385.644h182.07v16.183h-182.07zm56.644 64.736h125.427v16.183H204.528z"
       id="path516" />
    <path
       fill="#333"
       d="M338.046-239.988H139.79v-198.255h198.256v198.255zm-182.07-16.184H321.86V-422.06H155.975v165.888z"
       id="path518" />
    <text
       x="659.687"
       y="-138.678"
       fill="#4285f4"
       style="line-height:125%"
       font-size="28.504"
       letter-spacing="0"
       word-spacing="0"
       font-family="Sans"
       transform="translate(0,27.637817) matrix(2.8322156,0,0,2.8322156,-1630.1672,243.33015)"
       id="text520">
      <tspan
         x="659.687"
         y="-138.678"
         style="text-align:center;-inkscape-font-specification:Just Another Hand"
         text-anchor="middle"
         font-family="Just Another Hand"
         id="tspan522">Layout</tspan>
    </text>
  </g>
  <g
     fill="#666"
     id="g524">
    <path
       fill="#333"
       d="M667.18-429.045c-.16-5.018-4.376-9.088-9.402-9.088h-22s-53.028 1.18-70.718 1.168c-16.192-.01-64.73-1.168-64.73-1.168h-21.995c-5.026 0-9.245 4.07-9.402 9.088-.16 5.034 3.823 9.14 8.878 9.14h6.89c2.17 13.473 19.79 122.827 27.34 161.398 1.2 6.078 4.81 13.166 11.13 13.852 3.39.88 19.27 4.667 42.05 4.667 23.26 0 43.3-3.93 46.75-4.647 6.42-.555 10.11-7.714 11.33-13.848 7.73-38.716 25.91-148.08 28.12-161.42h6.9c5.06-.002 9.04-4.108 8.88-9.142zm-46.196 9.503c-1.54 2.046-3.08 4.09-4.612 6.13-1.693-1.96-3.384-3.946-5.073-5.948 3.4-.063 6.66-.127 9.68-.183zm-27.7 1.536c4.545 5.88 9.133 11.553 13.756 17.036l-2.59 3.466c-4.588 6.136-9.166 12.26-13.77 18.313-4.855-5.84-9.486-11.7-13.886-17.49 5.43-6.76 10.92-13.87 16.49-21.33zm-34.98 78.462c-4.91 5.416-9.93 10.626-15.098 15.575-5.24-5.74-10.416-11.64-15.53-17.7 5.21-4.98 10.22-10.12 15.036-15.37 5.024 5.92 10.224 11.77 15.59 17.51zm-5.106-29.39c.258-.303.512-.606.77-.91 4.644-5.132 9.315-10.495 14.03-16.108 4.754 5.674 9.478 11.097 14.175 16.28.206.245.41.49.617.733-4.863 6.24-9.786 12.35-14.794 18.28-5.012-5.93-9.935-12.04-14.798-18.27zm14.796 39.414c5.157 5.162 10.45 10.202 15.914 15.063-5.244 5.496-10.547 10.84-15.914 16.033-5.37-5.192-10.676-10.535-15.92-16.03 5.464-4.864 10.76-9.906 15.92-15.066zm9.695-10.024c5.36-5.74 10.56-11.592 15.59-17.504 4.81 5.242 9.82 10.39 15.03 15.367-5.12 6.06-10.29 11.96-15.53 17.7-5.17-4.95-10.19-10.16-15.1-15.57zm-13.95-79.18c3.04 0 7.06-.027 11.66-.077-.98 1.36-1.94 2.71-2.9 4.03-1.47 2.05-2.98 4.13-4.51 6.24-1.54-2.11-3.05-4.19-4.51-6.24-.95-1.31-1.9-2.63-2.86-3.98 1.13.01 2.17.01 3.11.01zm-21.03.718c5.57 7.468 11.06 14.57 16.48 21.33-4.4 5.786-9.03 11.654-13.89 17.49-4.61-6.056-9.19-12.182-13.77-18.32l-2.59-3.458c4.62-5.485 9.21-11.16 13.76-17.042zm-18.07-1.306c-1.68 1.986-3.36 3.955-5.04 5.9l-4.59-6.097c3.01.07 6.26.13 9.62.2zm-26.82 3.235c3.45 4.943 7.04 10.01 10.74 15.145-2.32 2.56-4.65 5.08-6.98 7.565-1.59-9.5-2.9-17.383-3.78-22.71zm11.3 73.942l-.96-5.238 2.18 3.86-1.23 1.378zm-4.36-32.318c4.4-4.45 8.77-9.046 13.1-13.824 5.25 7.006 10.73 14.084 16.45 21.126-5.08 5.3-10.14 10.33-15.2 15.11-4.56-5.65-14.08-20.75-14.36-22.42zm12.35 71.98c-1.46-8.27-2.98-17.006-4.5-25.834 1.43-1.176 2.86-2.363 4.26-3.575 5.28 6 10.63 11.75 15.99 17.26-5.09 4.33-10.33 8.39-15.77 12.15zm8.95 39.99s-.66.897-1.28 1.53c-.05-.177-.09-.347-.12-.516-.86-4.29-1.86-9.51-2.95-15.4 3.46 3.26 6.94 6.46 10.46 9.63-2.08 1.63-4.12 3.22-6.12 4.77zm10.83 6.662c1.44-1.14 2.88-2.28 4.32-3.44 1.8 1.57 3.61 3.12 5.42 4.67-3.68-.37-6.96-.81-9.75-1.25zm5.94-19.93c-5.89-5.7-11.69-11.52-17.41-17.46 5.6-3.97 11.05-8.15 16.36-12.5 5.7 5.56 11.4 10.87 17.04 15.93-3.98 3.67-7.99 7.26-12.03 10.77-1.34 1.09-2.66 2.18-3.98 3.25zm26.34 22.05c-.78.01-1.57.03-2.35.03-5.22-4.58-10.39-9.23-15.48-13.99 1.7-1.45 3.4-2.91 5.1-4.39 3.78-3.11 7.63-6.34 11.53-9.69 3.93 3.37 7.81 6.63 11.62 9.77 1.66 1.44 3.33 2.87 5 4.29-5.09 4.75-10.23 9.39-15.44 13.96zm20.75-1.39c1.61-1.38 3.22-2.77 4.83-4.17 1.27 1.03 2.55 2.04 3.84 3.06-2.56.37-5.48.75-8.67 1.1zm3.2-20.66c-1.29-1.04-2.58-2.1-3.88-3.17-4.07-3.54-8.12-7.16-12.12-10.86 5.64-5.06 11.34-10.36 17.04-15.93 5.31 4.34 10.76 8.52 16.36 12.49-5.72 5.94-11.52 11.76-17.41 17.46zm17.52 14.21c-.42-.49-.76-.95-.76-.95-2.01-1.55-4.05-3.14-6.12-4.77 3.26-2.95 6.51-5.93 9.73-8.95-1.06 5.58-2.03 10.55-2.87 14.66zm7.77-41.23c-5.28-3.68-10.39-7.64-15.34-11.85 5.37-5.51 10.72-11.26 16-17.26 1.3 1.12 2.62 2.23 3.95 3.32-1.56 8.81-3.12 17.52-4.62 25.79zm6.97-39.37l-1.23-1.38 2.18-3.86-.95 5.24zm-8.56-9.91c-5.06-4.78-10.12-9.81-15.19-15.11 5.71-7.05 11.2-14.12 16.45-21.13 4.29 4.74 8.62 9.3 12.99 13.71-.31 1.79-9.77 16.96-14.26 22.52zm17.5-41.35c-2.32-2.48-4.63-4.99-6.95-7.54 3.75-5.19 7.37-10.31 10.852-15.3-.91 5.32-2.265 13.25-3.91 22.83z"
       id="path526" />
    <text
       x="775.899"
       y="-138.678"
       fill="#4285f4"
       style="line-height:125%"
       font-size="28.504"
       letter-spacing="0"
       word-spacing="0"
       font-family="Sans"
       transform="translate(0,27.637817) matrix(2.8322156,0,0,2.8322156,-1630.1672,243.33015)"
       id="text528">
      <tspan
         x="775.899"
         y="-138.678"
         style="text-align:center;-inkscape-font-specification:Just Another Hand"
         text-anchor="middle"
         font-family="Just Another Hand"
         id="tspan530">Supprimé</tspan>
    </text>
  </g>
  <g
     fill="#666"
     id="g532">
    <path
       fill="#333"
       d="M996.322-257.176V-358.1c0-4.66-3.774-8.438-8.435-8.438l-83.84 52.175 92.275 57.187zm-189.818-109.36c-4.66 0-8.437 3.777-8.437 8.438v109.67c0 4.66 3.776 8.44 8.437 8.44h181.383c4.66 0 8.435-3.78 8.435-8.44L806.504-366.534z"
       id="path534" />
    <path
       fill="#4285f4"
       d="M937.465-391.275c-4.327 16.96-19.666 29.523-37.978 29.523-18.31 0-33.648-12.565-37.972-29.523h-45.04v22.594l80.427 49.48 80.78-47.91v-24.17h-40.217z"
       id="path536" />
    <path
       fill="#333"
       d="M899.487-432.48c-17.392 0-31.487 14.094-31.487 31.49 0 17.392 14.095 31.49 31.487 31.49 17.395 0 31.495-14.098 31.495-31.49 0-17.396-14.103-31.49-31.495-31.49zm4.058 48.635h-7.034v-24.416h-6.88v-4.6h.64c2.35 0 4.2-.44 5.55-1.32 1.35-.88 2.2-2.3 2.57-4.25h5.18v34.57z"
       id="path538" />
    <text
       x="892.112"
       y="-138.678"
       fill="#4285f4"
       style="line-height:125%"
       font-size="28.504"
       letter-spacing="0"
       word-spacing="0"
       font-family="Sans"
       transform="translate(0,27.637817) matrix(2.8322156,0,0,2.8322156,-1630.1672,243.33015)"
       id="text540">
      <tspan
         x="892.112"
         y="-138.678"
         style="text-align:center;-inkscape-font-specification:Just Another Hand"
         text-anchor="middle"
         font-family="Just Another Hand"
         id="tspan542">Notification</tspan>
    </text>
  </g>
  <g
     fill="#666"
     id="g544">
    <path
       fill="#4285f4"
       d="M1194.853-290.07l-24.713-11.734c-2.787-1.32-4.472-3.373-4.472-6.232v-.733c0-2.85 1.685-4.91 4.472-6.23l24.713-11.73c.88-.44 1.685-.73 2.713-.73 2.347-.07 4.473 1.98 4.473 4.62 0 2.13-1.18 3.6-3.08 4.47l-22.15 9.9 22.14 9.9c1.9.88 3.08 2.57 3.08 4.62 0 2.72-2.13 4.62-4.84 4.55-.81 0-1.61-.29-2.35-.66zm13.934 11l28.673-59.91c.806-1.685 2.125-2.565 3.886-2.565 2.347 0 4.325 1.98 4.325 4.18 0 .806-.29 1.613-.51 2.127l-28.67 59.908c-.8 1.685-2.12 2.565-3.88 2.565-2.34 0-4.32-1.978-4.32-4.18 0-.806.29-1.61.52-2.125zm51.33-47.664l24.712 11.732c2.78 1.32 4.47 3.375 4.47 6.233v.74c0 2.86-1.69 4.92-4.47 6.23l-24.72 11.74c-.88.44-1.69.74-2.72.74-2.35.07-4.48-1.98-4.48-4.62 0-2.13 1.17-3.59 3.08-4.47l22.14-9.9-22.15-9.9c-1.91-.87-3.08-2.56-3.08-4.62 0-2.71 2.12-4.62 4.84-4.54.8 0 1.61.3 2.34.66z"
       id="path546" />
    <path
       fill="#333"
       d="M1325.46-382.916c0-3.82-3.097-6.916-6.916-6.916H1134.12c-3.82 0-6.916 3.096-6.916 6.916v136.012c0 3.82 3.096 6.916 6.916 6.916h184.424c3.82 0 6.915-3.096 6.915-6.916v-136.012zm-153.302-.385c2.757 0 4.995 2.23 4.995 4.99 0 2.76-2.236 4.99-4.995 4.99-2.76 0-4.996-2.24-4.996-5s2.238-5 4.996-5zm-13.832 0c2.757 0 4.995 2.23 4.995 4.99 0 2.76-2.23 4.99-4.99 4.99-2.76 0-4.99-2.24-4.99-5s2.24-5 5-5zm-13.832 0c2.757 0 4.996 2.23 4.996 4.99 0 2.76-2.237 4.99-4.996 4.99-2.76 0-4.995-2.24-4.995-5s2.23-5 4.99-5zm171.745 134.09h-179.82v-115.27h179.81v115.26z"
       id="path548" />
    <text
       x="1008.324"
       y="-138.678"
       fill="#4285f4"
       style="line-height:125%"
       font-size="28.504"
       letter-spacing="0"
       word-spacing="0"
       font-family="Sans"
       transform="translate(0,27.637817) matrix(2.8322156,0,0,2.8322156,-1630.1672,243.33015)"
       id="text550">
      <tspan
         x="1008.324"
         y="-138.678"
         style="text-align:center;-inkscape-font-specification:Just Another Hand"
         text-anchor="middle"
         font-family="Just Another Hand"
         id="tspan552">Page</tspan>
    </text>
  </g>
  <g
     fill="#666"
     id="g554">
    <path
       fill="#333"
       d="M1884.612-438.237c-5.108 0-10.126.386-15.026 1.132l-.426-.187c-.042.09-.076.187-.12.278-47.35 7.47-83.56 48.45-83.56 97.9 0 54.748 44.38 99.126 99.128 99.126 54.745 0 99.126-44.378 99.126-99.126 0-54.742-44.378-99.123-99.123-99.123zm-20.645 109.376c-1.563-.78-3.227-1.39-4.98-1.76.13-12.66 1.12-25.26 2.97-37.63 5.824-1.21 10.742-4.86 13.685-9.81 14.21 4.1 27.864 10.57 40.7 19.11-.328 1.01-.573 2.06-.745 3.13-18.308 5.56-35.695 14.65-51.63 26.94zm-20.384 36.35c1.778 1.11 3.73 1.96 5.817 2.51 1.49 11.19 3.638 22.22 6.455 33.03-10.005-3.52-19.183-8.8-27.145-15.49 4.66-7.13 9.63-13.82 14.873-20.05zm113.355-57.64c.63-.01 1.258-.04 1.893-.04 4.06 0 8.13.25 12.19.61.42 3.43.65 6.91.65 10.45 0 5.25-.49 10.38-1.39 15.38-4.98-6.67-10.23-12.92-15.74-18.73 1.27-2.33 2.11-4.93 2.42-7.7zm11.674-11.76c-3.26-.22-6.527-.35-9.78-.35-1.396 0-2.788.03-4.177.07-3.502-6.63-10.455-11.15-18.468-11.15-4.858 0-9.32 1.67-12.867 4.46-14.08-9.41-29.128-16.47-44.803-20.94-.34-6.34-3.49-11.91-8.24-15.51 2.114-6.99 4.502-13.85 7.186-20.53 2.36-.19 4.74-.32 7.15-.32 40.108 0 73.952 27.27 84 64.25zm-104.95-61.69c-1.705 4.63-3.28 9.33-4.733 14.1-.42-.03-.82-.07-1.24-.07-9.16 0-16.92 5.9-19.74 14.09-7 0-14 .56-20.93 1.56 11.74-14.45 28.01-25.08 46.63-29.7zm-66.103 84.48c0-14.72 3.68-28.58 10.15-40.75 9.79-2.26 19.78-3.48 29.8-3.52 1.68 6.42 6.33 11.62 12.4 14.06-1.93 13.08-2.95 26.38-3.03 39.75-7.68 3.08-13.11 10.58-13.11 19.37 0 3 .64 5.85 1.78 8.42-5.53 6.45-10.77 13.39-15.7 20.77-13.86-15.43-22.32-35.81-22.32-58.13zm87.05 87.05c-5.21 0-10.31-.49-15.27-1.37-3.49-12.06-6.1-24.43-7.83-37.05 8.16-2.84 14.03-10.58 14.03-19.71 0-3.73-.99-7.22-2.7-10.25 13.82-10.4 28.75-18.23 44.41-23.23 3.32 7.13 10.53 12.08 18.92 12.08 3.48 0 6.76-.87 9.65-2.38 7.24 7.64 14.03 16.09 20.29 25.32-12.38 33-44.25 56.56-81.52 56.56z"
       id="path556" />
    <text
       x="1240.748"
       y="-138.678"
       fill="#4285f4"
       style="line-height:125%"
       font-size="28.504"
       letter-spacing="0"
       word-spacing="0"
       font-family="Sans"
       transform="translate(0,27.637817) matrix(2.8322156,0,0,2.8322156,-1630.1672,243.33015)"
       id="text558">
      <tspan
         x="1240.748"
         y="-138.678"
         style="text-align:center;-inkscape-font-specification:Just Another Hand"
         text-anchor="middle"
         font-family="Just Another Hand"
         id="tspan560">Réseau</tspan>
    </text>
  </g>
  <g
     fill="#666"
     id="g562">
    <path
       fill="#333"
       d="M2263.31-339.116c-2.348 0-4.574.375-6.825.69-8.642-15.27-24.613-25.47-42.74-25.47-18.513 0-34.486 10.32-43.003 25.4-2.18-.292-4.358-.62-6.56-.62-27.322 0-49.564 22.23-49.564 49.564 0 27.348 22.242 49.564 49.563 49.564h99.13c27.32 0 49.57-22.216 49.57-49.564 0-27.335-22.24-49.564-49.56-49.564zm0 74.346h-99.13c-13.67 0-24.78-11.12-24.78-24.782 0-13.588 12.026-24.068 24.805-24.443.048 5.845 1.065 11.58 3.097 17l23.21-8.687c-1.04-2.746-1.548-5.662-1.548-8.652 0-13.66 11.11-24.782 24.78-24.782 8.013 0 15.273 3.97 19.823 10.153-11.957 9.052-19.822 23.267-19.822 39.41h24.782c0-13.66 11.11-24.78 24.782-24.78 13.67 0 24.78 11.12 24.78 24.78 0 13.663-11.11 24.783-24.78 24.783z"
       id="path564" />
    <text
       x="1356.96"
       y="-138.678"
       fill="#4285f4"
       style="line-height:125%"
       font-size="28.504"
       letter-spacing="0"
       word-spacing="0"
       font-family="Sans"
       transform="translate(0,27.637817) matrix(2.8322156,0,0,2.8322156,-1630.1672,243.33015)"
       id="text566">
      <tspan
         x="1356.96"
         y="-138.678"
         style="text-align:center;-inkscape-font-specification:Just Another Hand"
         text-anchor="middle"
         font-family="Just Another Hand"
         id="tspan568">Push Message</tspan>
    </text>
  </g>
  <g
     fill="#666"
     id="g570">
    <path
       fill="#333"
       d="M1648.04-416.976l-39.49-39.584c-4.212-4.222-9.933-6.597-15.898-6.597H1478.8c-12.403 0-22.458 10.056-22.458 22.458v178.26c0 12.4 10.055 22.46 22.457 22.46h153.34c12.4 0 22.45-10.05 22.45-22.45V-401.1c0-5.947-2.36-11.65-6.56-15.86zm-15.903 154.53H1478.8V-440.7h113.855l39.485 39.588v138.668z"
       id="path572" />
    <path
       fill="#4285f4"
       d="M1501.89-431.528c-6.2 0-11.228 5.027-11.228 11.228v29.475c0 6.2 5.028 11.23 11.23 11.23 6.2 0 11.227-5.03 11.227-11.23V-420.3c0-6.2-5.03-11.228-11.23-11.228zm34.156 0c-6.2 0-11.23 5.027-11.23 11.228v29.475c0 6.2 5.03 11.23 11.23 11.23s11.228-5.03 11.228-11.23V-420.3c0-6.2-5.028-11.228-11.228-11.228zm34.15 0c-6.2 0-11.23 5.027-11.23 11.228v29.475c0 6.2 5.03 11.23 11.23 11.23s11.23-5.03 11.23-11.23V-420.3c0-6.2-5.03-11.228-11.23-11.228zm34.156 51.935c6.2 0 11.23-5.028 11.23-11.23v-9.824c0-6.2-5.03-11.23-11.23-11.23s-11.23 5.03-11.23 11.23v9.825c0 6.2 5.03 11.23 11.23 11.23z"
       id="path574" />
    <text
       x="1124.536"
       y="-138.678"
       fill="#4285f4"
       style="line-height:125%"
       font-size="28.504"
       letter-spacing="0"
       word-spacing="0"
       font-family="Sans"
       transform="translate(0,27.637817) matrix(2.8322156,0,0,2.8322156,-1630.1672,243.33015)"
       id="text576">
      <tspan
         x="1124.536"
         y="-138.678"
         style="text-align:center;-inkscape-font-specification:Just Another Hand"
         text-anchor="middle"
         font-family="Just Another Hand"
         id="tspan578">Cache</tspan>
    </text>
  </g>
  <path
     fill="none"
     stroke="#4285f4"
     stroke-width="8"
     d="M604.665-666.714c288.572-77.143 482.858-10 482.858-10"
     stroke-linecap="round"
     stroke-linejoin="round"
     id="path580" />
  <path
     fill="#4285f4"
     d="M1065.756-666.437l10.265-30.155 31.97 23.978s2.25 2.076 1.52 4.242-3.74 2.31-3.74 2.31z"
     id="path582" />
  <path
     fill="#333"
     d="M-803.258-438.243l-70.092 29.04-29.03 70.087 29.03 70.09 70.092 29.038 70.104-29.04 29.03-70.088-29.03-70.088-70.104-29.04zm14.532 44.917l34.082 26.147 5.6 42.59-26.15 34.08-42.584 5.61-34.082-26.14-5.6-42.58 26.15-34.08 42.584-5.61z"
     id="path584" />
  <text
     x="-803.961"
     y="-149.435"
     fill="#4285f4"
     style="line-height:125%"
     font-size="80.73"
     letter-spacing="0"
     word-spacing="0"
     font-family="Sans"
     transform="translate(0,27.637817)"
     id="text586">
    <tspan
       x="-803.961"
       y="-149.435"
       style="text-align:center;-inkscape-font-specification:Just Another Hand"
       text-anchor="middle"
       font-family="Just Another Hand"
       id="tspan588">App Cache</tspan>
  </text>
  <g
     id="g590"
     transform="translate(30.607995,1271.6231)"
     style="fill:#666666">
    <path
       d="m 1540.878,321.03 c -5.108,0 -10.126,0.387 -15.026,1.133 l -0.426,-0.187 c -0.042,0.09 -0.076,0.187 -0.12,0.278 -47.35,7.47 -83.56,48.45 -83.56,97.9 0,54.748 44.38,99.126 99.128,99.126 54.745,0 99.126,-44.378 99.126,-99.126 0,-54.742 -44.378,-99.123 -99.123,-99.123 z m -20.645,109.377 c -1.563,-0.78 -3.227,-1.383 -4.98,-1.75 0.13,-12.66 1.12,-25.256 2.97,-37.625 5.824,-1.208 10.742,-4.855 13.685,-9.812 14.21,4.103 27.864,10.572 40.7,19.114 -0.328,1.01 -0.573,2.062 -0.745,3.133 -18.308,5.568 -35.695,14.655 -51.63,26.94 z m -20.384,36.353 c 1.77,1.117 3.73,1.965 5.81,2.512 1.49,11.197 3.64,22.223 6.45,33.03 -10.01,-3.513 -19.19,-8.8 -27.15,-15.49 4.66,-7.13 9.63,-13.82 14.87,-20.052 z m 113.35,-57.638 c 0.63,-0.008 1.26,-0.033 1.89,-0.033 4.06,0 8.13,0.25 12.18,0.61 0.41,3.43 0.65,6.91 0.65,10.45 0,5.25 -0.49,10.38 -1.39,15.38 -4.99,-6.67 -10.24,-12.92 -15.75,-18.73 1.27,-2.33 2.11,-4.93 2.41,-7.7 z m 11.67,-11.762 c -3.26,-0.218 -6.53,-0.347 -9.78,-0.347 -1.4,0 -2.79,0.036 -4.18,0.075 -3.5,-6.627 -10.46,-11.15 -18.47,-11.15 -4.86,0 -9.32,1.676 -12.87,4.46 -14.08,-9.408 -29.13,-16.47 -44.81,-20.932 -0.34,-6.337 -3.49,-11.91 -8.24,-15.51 2.11,-6.99 4.5,-13.85 7.18,-20.53 2.36,-0.192 4.74,-0.316 7.14,-0.316 40.11,-0.002 73.95,27.275 84,64.25 z m -104.95,-61.69 c -1.71,4.632 -3.28,9.336 -4.74,14.1 -0.42,-0.026 -0.82,-0.064 -1.24,-0.064 -9.16,0 -16.92,5.9 -19.74,14.096 -7,0.006 -14,0.56 -20.93,1.564 11.74,-14.452 28.01,-25.076 46.63,-29.696 z m -66.11,84.487 c 0,-14.715 3.68,-28.58 10.15,-40.743 9.79,-2.258 19.78,-3.475 29.8,-3.517 1.68,6.42 6.33,11.626 12.4,14.066 -1.93,13.08 -2.95,26.387 -3.03,39.755 -7.68,3.083 -13.11,10.588 -13.11,19.37 0,3 0.64,5.85 1.78,8.424 -5.53,6.455 -10.77,13.396 -15.7,20.775 -13.86,-15.428 -22.32,-35.807 -22.32,-58.13 z m 87.05,87.05 c -5.21,0 -10.31,-0.487 -15.27,-1.368 -3.49,-12.06 -6.1,-24.44 -7.83,-37.05 8.16,-2.84 14.03,-10.58 14.03,-19.71 0,-3.73 -0.99,-7.22 -2.7,-10.25 13.82,-10.4 28.75,-18.23 44.41,-23.23 3.32,7.13 10.53,12.08 18.92,12.08 3.48,0 6.76,-0.87 9.65,-2.38 7.25,7.64 14.03,16.09 20.3,25.32 -12.39,33 -44.25,56.56 -81.53,56.56 z"
       id="path592"
       inkscape:connector-curvature="0"
       style="fill:#333333" />
    <text
       x="1240.748"
       y="-138.67799"
       style="font-size:28.50399971px;line-height:125%;font-family:Sans;letter-spacing:0;word-spacing:0;fill:#4285f4"
       font-size="28.504"
       letter-spacing="0"
       word-spacing="0"
       transform="matrix(2.8322156,0,0,2.8322156,-1973.9012,1030.2359)"
       id="text594"
       sodipodi:linespacing="125%">
      <tspan
         x="1240.748"
         y="-138.67799"
         style="font-family:'Just Another Hand';-inkscape-font-specification:'Just Another Hand';text-align:center;text-anchor:middle"
         id="tspan596">Réseau</tspan>
    </text>
  </g>
  <path
     d="m -31.999267,1424.6631 1180.212967,0 0,1080 -1180.212967,0 z"
     id="path598"
     style="fill:#9b9b9b;fill-opacity:1"
     inkscape:connector-curvature="0" />
  <path
     d="m 380.97799,1573.9151 -24.712,-11.734 c -2.787,-1.32 -4.472,-3.373 -4.472,-6.23 l 0,-0.734 c 0,-2.86 1.685,-4.913 4.472,-6.234 l 24.713,-11.73 c 0.88,-0.442 1.69,-0.735 2.72,-0.735 2.35,-0.07 4.48,1.98 4.48,4.62 0,2.126 -1.17,3.594 -3.08,4.473 l -22.14,9.898 22.15,9.902 c 1.91,0.878 3.08,2.565 3.08,4.62 0,2.713 -2.13,4.62 -4.84,4.546 -0.81,0 -1.61,-0.293 -2.35,-0.662 z m 13.934,11 28.674,-59.91 c 0.806,-1.684 2.125,-2.565 3.886,-2.565 2.347,0 4.325,1.98 4.325,4.18 0,0.806 -0.3,1.613 -0.52,2.127 l -28.669,59.908 c -0.806,1.685 -2.124,2.566 -3.886,2.566 -2.347,0 -4.325,-1.978 -4.325,-4.18 0,-0.807 0.29,-1.61 0.51,-2.125 z m 51.33,-47.662 24.713,11.73 c 2.785,1.32 4.472,3.375 4.472,6.234 l 0,0.733 c 0,2.858 -1.69,4.912 -4.48,6.23 l -24.72,11.735 c -0.88,0.44 -1.69,0.733 -2.72,0.733 -2.35,0.072 -4.48,-1.98 -4.48,-4.62 0,-2.128 1.17,-3.594 3.08,-4.472 l 22.14,-9.9 -22.15,-9.9 c -1.91,-0.88 -3.08,-2.566 -3.08,-4.62 0,-2.713 2.13,-4.62 4.84,-4.548 0.8,0 1.61,0.297 2.34,0.664 z"
     id="path600"
     inkscape:connector-curvature="0"
     style="fill:#4285f4" />
  <path
     d="m 511.58499,1481.0691 c 0,-3.82 -3.096,-6.916 -6.915,-6.916 l -184.424,0 c -3.82,0 -6.916,3.096 -6.916,6.916 l 0,136.012 c 0,3.82 3.096,6.916 6.916,6.916 l 184.424,0 c 3.82,0 6.915,-3.096 6.915,-6.916 l 0,-136.012 z m -153.3,-0.385 c 2.756,0 4.994,2.24 4.994,5 0,2.76 -2.23,5 -4.99,5 -2.76,0 -4.99,-2.23 -4.99,-4.99 0,-2.76 2.24,-4.99 5,-4.99 z m -13.833,0 c 2.757,0 4.995,2.24 4.995,5 0,2.76 -2.24,5 -5,5 -2.76,0 -5,-2.23 -5,-4.99 0,-2.76 2.24,-4.99 4.99,-4.99 z m -13.832,0 c 2.757,0 4.996,2.24 4.996,5 0,2.76 -2.237,5 -4.996,5 -2.76,0 -4.995,-2.23 -4.995,-4.99 0,-2.76 2.238,-4.99 4.995,-4.99 z m 171.744,134.1 -179.812,0 0,-115.271 179.812,0 0,115.263 z"
     id="path602"
     inkscape:connector-curvature="0"
     style="fill:#333333" />
  <path
     d="m 380.97799,1762.4861 -24.71,-11.733 c -2.787,-1.32 -4.472,-3.373 -4.472,-6.232 l 0,-0.733 c 0,-2.858 1.685,-4.912 4.472,-6.233 l 24.71,-11.732 c 0.88,-0.44 1.686,-0.733 2.714,-0.733 2.347,-0.072 4.473,1.98 4.473,4.62 0,2.125 -1.174,3.594 -3.08,4.472 l -22.145,9.89 22.145,9.9 c 1.906,0.88 3.08,2.56 3.08,4.62 0,2.71 -2.126,4.62 -4.84,4.54 -0.806,0 -1.613,-0.3 -2.346,-0.66 z m 13.934,11 28.674,-59.91 c 0.806,-1.684 2.125,-2.565 3.886,-2.565 2.347,0 4.325,1.98 4.325,4.18 0,0.807 -0.3,1.614 -0.52,2.128 l -28.669,59.907 c -0.806,1.686 -2.124,2.566 -3.886,2.566 -2.347,0 -4.325,-1.98 -4.325,-4.18 0,-0.81 0.29,-1.62 0.51,-2.13 z m 51.33,-47.663 24.713,11.732 c 2.785,1.32 4.472,3.375 4.472,6.233 l 0,0.733 c 0,2.86 -1.69,4.913 -4.48,6.23 l -24.72,11.735 c -0.88,0.44 -1.69,0.733 -2.72,0.733 -2.35,0.072 -4.48,-1.98 -4.48,-4.62 0,-2.127 1.17,-3.593 3.08,-4.472 l 22.14,-9.9 -22.15,-9.9 c -1.91,-0.878 -3.08,-2.566 -3.08,-4.62 0,-2.713 2.13,-4.62 4.84,-4.548 0.8,0 1.61,0.298 2.34,0.664 z"
     id="path604"
     inkscape:connector-curvature="0"
     style="fill:#4285f4" />
  <path
     d="m 511.58499,1669.6411 c 0,-3.82 -3.096,-6.916 -6.915,-6.916 l -184.424,0 c -3.82,0 -6.916,3.096 -6.916,6.916 l 0,136.012 c 0,3.82 3.096,6.916 6.916,6.916 l 184.424,0 c 3.82,0 6.915,-3.096 6.915,-6.916 l 0,-136.012 z m -153.3,-0.385 c 2.756,0 4.994,2.236 4.994,4.995 0,2.76 -2.23,4.996 -4.99,4.996 -2.76,0 -4.99,-2.236 -4.99,-4.996 0,-2.76 2.24,-4.995 5,-4.995 z m -13.833,0 c 2.757,0 4.995,2.236 4.995,4.995 0,2.76 -2.24,4.996 -5,4.996 -2.76,0 -5,-2.236 -5,-4.996 0,-2.76 2.24,-4.995 4.99,-4.995 z m -13.832,0 c 2.757,0 4.996,2.236 4.996,4.995 0,2.76 -2.237,4.996 -4.996,4.996 -2.76,0 -4.995,-2.236 -4.995,-4.996 0,-2.76 2.238,-4.995 4.995,-4.995 z m 171.744,134.092 -179.812,0 0,-115.265 179.812,0 0,115.265 z"
     id="path606"
     inkscape:connector-curvature="0"
     style="fill:#333333" />
  <path
     d="m 380.97799,1951.0581 -24.71,-11.735 c -2.787,-1.318 -4.472,-3.372 -4.472,-6.23 l 0,-0.734 c 0,-2.858 1.685,-4.912 4.472,-6.233 l 24.713,-11.732 c 0.88,-0.44 1.686,-0.73 2.714,-0.73 2.347,-0.07 4.473,1.98 4.473,4.62 0,2.13 -1.174,3.6 -3.08,4.47 l -22.145,9.9 22.145,9.9 c 1.906,0.88 3.08,2.57 3.08,4.62 0,2.72 -2.126,4.62 -4.84,4.55 -0.806,0 -1.613,-0.29 -2.346,-0.66 z m 13.934,11 28.674,-59.91 c 0.806,-1.685 2.125,-2.565 3.886,-2.565 2.347,0 4.325,1.98 4.325,4.18 0,0.806 -0.3,1.613 -0.52,2.127 l -28.669,59.908 c -0.806,1.685 -2.124,2.566 -3.886,2.566 -2.347,0 -4.325,-1.97 -4.325,-4.18 0,-0.8 0.29,-1.61 0.51,-2.12 z m 51.33,-47.665 24.713,11.733 c 2.785,1.32 4.472,3.375 4.472,6.233 l 0,0.734 c 0,2.858 -1.69,4.912 -4.48,6.23 l -24.72,11.735 c -0.88,0.44 -1.69,0.733 -2.72,0.733 -2.35,0.07 -4.48,-1.98 -4.48,-4.62 0,-2.128 1.17,-3.594 3.08,-4.472 l 22.14,-9.902 -22.15,-9.898 c -1.91,-0.88 -3.08,-2.566 -3.08,-4.62 0,-2.714 2.13,-4.62 4.84,-4.55 0.8,0 1.61,0.3 2.34,0.665 z"
     id="path608"
     inkscape:connector-curvature="0"
     style="fill:#4285f4" />
  <path
     d="m 511.58499,1858.2131 c 0,-3.82 -3.096,-6.917 -6.915,-6.917 l -184.424,0 c -3.82,0 -6.916,3.096 -6.916,6.916 l 0,136.011 c 0,3.82 3.096,6.917 6.916,6.917 l 184.424,0 c 3.82,0 6.915,-3.096 6.915,-6.916 l 0,-136.011 z m -153.3,-0.386 c 2.756,0 4.994,2.236 4.994,4.996 0,2.76 -2.23,4.995 -4.99,4.995 -2.76,0 -4.99,-2.236 -4.99,-4.995 0,-2.76 2.24,-4.996 5,-4.996 z m -13.833,0 c 2.757,0 4.995,2.236 4.995,4.996 0,2.76 -2.24,4.995 -5,4.995 -2.76,0 -5,-2.236 -5,-4.995 0,-2.76 2.24,-4.996 4.99,-4.996 z m -13.832,0 c 2.757,0 4.996,2.236 4.996,4.996 0,2.76 -2.237,4.995 -4.996,4.995 -2.76,0 -4.995,-2.236 -4.995,-4.995 0,-2.76 2.238,-4.996 4.995,-4.996 z m 171.744,134.092 -179.812,0 0,-115.266 179.812,0 0,115.266 z"
     id="path610"
     inkscape:connector-curvature="0"
     style="fill:#333333" />
  <text
     x="411.37399"
     y="2119.3315"
     style="font-size:80.73000336px;line-height:125%;font-family:Sans;letter-spacing:0;word-spacing:0;fill:#4285f4"
     font-size="80.73"
     letter-spacing="0"
     word-spacing="0"
     id="text612"
     sodipodi:linespacing="125%">
    <tspan
       x="411.37399"
       y="2119.3315"
       style="font-family:'Just Another Hand';-inkscape-font-specification:'Just Another Hand';text-align:center;text-anchor:middle"
       id="tspan614">Pages</tspan>
  </text>
  <path
     d="m 1422.714,1666.3081 c -718.14001,74.937 -871.34401,-124.375 -871.34401,-124.375"
     id="path616"
     inkscape:connector-curvature="0"
     style="fill:none;stroke:#4285f4;stroke-width:8;stroke-linecap:round;stroke-linejoin:round" />
  <path
     d="m 576.62799,1543.1171 -22.266,22.78 -18.495,-35.42 c 0,0 -1.14,-2.844 0.46,-4.48 1.6,-1.636 4.37,-0.47 4.37,-0.47 z m 838.82201,140.606 1.49,-31.818 37.363,14.162 c 0,0 2.738,1.37 2.63,3.655 -0.106,2.28 -2.954,3.25 -2.954,3.25 z"
     id="path618"
     inkscape:connector-curvature="0"
     style="fill:#4285f4" />
  <path
     d="m 1428.523,1752.0151 c -802.51001,-94.897 -860.81001,164.285 -860.81001,164.285"
     id="path620"
     inkscape:connector-curvature="0"
     style="fill:none;stroke:#4285f4;stroke-width:8;stroke-linecap:round;stroke-linejoin:round" />
  <path
     d="m 563.18999,1891.7931 27.965,15.252 -29.072,27.41 c 0,0 -2.43,1.866 -4.438,0.77 -2.008,-1.095 -1.638,-4.082 -1.638,-4.082 z m 860.39501,-121.083 -9.31,-30.464 39.95,0.757 c 0,0 3.04,0.368 3.71,2.556 0.67,2.188 -1.686,4.062 -1.686,4.062 z"
     id="path622"
     inkscape:connector-curvature="0"
     style="fill:#4285f4" />
  <path
     d="m 1152.857,445.714 c 0,71.797 -58.203,130 -130,130 -71.797,0 -130,-58.203 -130,-130 0,-71.797 58.203,-130 130,-130 71.797,0 130,58.203 130,130 z"
     transform="matrix(1.2100252,0,0,1.2100252,-232.21787,1162.0118)"
     id="path628"
     inkscape:connector-curvature="0"
     style="opacity:0.7;fill:#fffaff;filter:url(#a)" />
  <g
     id="g630"
     transform="translate(30.607995,1271.6231)"
     style="fill:#666666">
    <path
       d="m 932.467,393.606 81.104,0 0,81.105 -81.1,0 0,-81.1 z"
       id="path632"
       inkscape:connector-curvature="0"
       style="fill:#4285f4" />
    <path
       d="m 1067.64,393.606 c 2.48,0 4.506,-2.018 4.506,-4.505 0,-2.487 -2.027,-4.5 -4.505,-4.5 l -18.02,0 0,-9.01 18.03,0 c 2.48,0 4.51,-2.02 4.51,-4.5 0,-2.48 -2.02,-4.5 -4.5,-4.5 l -18.02,0 0,-4.5 c 0,-2.48 -2.02,-4.5 -4.5,-4.5 l -4.5,0 0,-18.03 c 0,-2.48 -2.03,-4.5 -4.5,-4.5 -2.47,0 -4.5,2.02 -4.5,4.51 l 0,18.03 -9.01,0 0,-18.03 c 0,-2.48 -2.03,-4.5 -4.5,-4.5 -2.47,0 -4.506,2.02 -4.506,4.51 l 0,18.02 -9.01,0 0,-18.03 c 0,-2.49 -2.03,-4.506 -4.505,-4.506 -2.48,0 -4.505,2.02 -4.505,4.506 l 0,18.03 -9.01,0 0,-18.03 c 0,-2.48 -2.03,-4.5 -4.51,-4.5 -2.48,0 -4.506,2.02 -4.506,4.51 l 0,18.02 -9.018,0 0,-18.03 c 0,-2.49 -2.02,-4.51 -4.503,-4.51 -2.483,0 -4.51,2.02 -4.51,4.507 l 0,18.025 -9.01,0 0,-18.03 c 0,-2.49 -2.02,-4.51 -4.51,-4.51 -2.49,0 -4.51,2.02 -4.51,4.51 l 0,18.022 -9.01,0 0,-18.03 c 0,-2.486 -2.02,-4.505 -4.506,-4.505 -2.486,0 -4.51,2.02 -4.51,4.5 l 0,18.02 -9.01,0 0,-18.03 c 0,-2.49 -2.02,-4.51 -4.504,-4.51 -2.49,0 -4.505,2.02 -4.505,4.5 l 0,18.022 -4.503,0 c -2.49,0 -4.506,2.02 -4.506,4.506 l 0,4.505 -18.03,0 c -2.487,0 -4.506,2.02 -4.506,4.505 0,2.49 2.02,4.51 4.507,4.51 l 18.028,0 0,9.01 -18.03,0 c -2.49,0 -4.507,2.01 -4.507,4.5 0,2.49 2.02,4.5 4.51,4.5 l 18.02,0 0,9.014 -18.02,0 c -2.485,0 -4.504,2.02 -4.504,4.502 0,2.482 2.02,4.502 4.51,4.502 l 18.03,0 0,9.01 -18.072,0 c -2.486,0 -4.505,2.02 -4.505,4.505 0,2.485 2.02,4.5 4.506,4.5 l 18.03,0 0,9.01 -18.031,0 c -2.487,0 -4.506,2.03 -4.506,4.51 0,2.48 2.02,4.504 4.507,4.504 l 18.03,0 0,9.01 -18.02,0 c -2.48,0 -4.5,2.03 -4.5,4.508 0,2.478 2.02,4.51 4.51,4.51 l 18.03,0 0,9.01 -18.02,0 c -2.49,0 -4.5,2.026 -4.5,4.504 0,2.48 2.02,4.503 4.51,4.503 l 18.02,0 0,9.01 -18.02,0 c -2.49,0 -4.51,2.027 -4.51,4.506 0,2.476 2.02,4.5 4.51,4.5 l 18.03,0 0,4.51 c 0,2.48 2.02,4.51 4.51,4.51 l 4.51,0 0,18.02 c 0,2.48 2.018,4.51 4.506,4.51 2.488,0 4.506,-2.03 4.506,-4.51 l 0,-18.02 9.01,0 0,18.024 c 0,2.48 2.02,4.506 4.508,4.506 2.488,0 4.508,-2.03 4.508,-4.51 l 0,-18.02 9.01,0 0,18.024 c 0,2.48 2.02,4.504 4.508,4.504 2.488,0 4.504,-2.03 4.504,-4.51 l 0,-18.02 9.01,0 0,18.02 c 0,2.48 2.02,4.503 4.507,4.503 2.49,0 4.504,-2.03 4.504,-4.51 l 0,-18.02 9.01,0 0,18.02 c 0,2.48 2.03,4.508 4.51,4.508 2.48,0 4.506,-2.03 4.506,-4.51 l 0,-18.02 9.01,0 0,18.022 c 0,2.476 2.026,4.504 4.505,4.504 2.475,0 4.5,-2.03 4.5,-4.51 l 0,-18.02 9.01,0 0,18.028 c 0,2.48 2.03,4.506 4.51,4.506 2.48,0 4.51,-2.03 4.51,-4.51 l 0,-18.02 9.01,0 0,18.02 c 0,2.48 2.03,4.507 4.51,4.507 2.48,0 4.5,-2.03 4.5,-4.51 l 0,-18.02 4.51,0 c 2.48,0 4.503,-2.03 4.503,-4.506 l 0,-4.51 18.024,0 c 2.48,0 4.506,-2.03 4.506,-4.506 0,-2.48 -2.025,-4.504 -4.503,-4.504 l -18.026,0 0,-9.01 18.02,0 c 2.48,0 4.505,-2.03 4.505,-4.508 0,-2.475 -2.026,-4.5 -4.504,-4.5 l -18.023,0 0,-9.01 18.022,0 c 2.48,0 4.504,-2.03 4.504,-4.5 0,-2.48 -2.025,-4.51 -4.503,-4.51 l -18.025,0 0,-9.01 18.026,0 c 2.48,0 4.505,-2.03 4.505,-4.51 0,-2.48 -2.03,-4.5 -4.507,-4.5 l -18.02,0 0,-9.01 18.02,0 c 2.48,0 4.51,-2.02 4.51,-4.51 0,-2.49 -2.02,-4.51 -4.5,-4.51 l -18.024,0 0,-9.01 18.03,0 c 2.48,0 4.506,-2.02 4.506,-4.5 0,-2.49 -2.03,-4.505 -4.51,-4.505 l -18.024,0 0,-9.01 18.022,0 z m -45.057,85.61 c 0,2.48 -2.028,4.506 -4.506,4.506 l -90.117,0 c -2.486,0 -4.505,-2.027 -4.505,-4.506 l 0,-90.116 c 0,-2.487 2.02,-4.505 4.506,-4.505 l 90.12,0 c 2.48,0 4.51,2.018 4.51,4.506 l 0,90.12 z"
       id="path634"
       inkscape:connector-curvature="0"
       style="fill:#333333" />
    <text
       x="427.263"
       y="-272.84799"
       style="font-size:28.50399971px;line-height:125%;font-family:Sans;letter-spacing:0;word-spacing:0;fill:#4285f4"
       font-size="28.504"
       letter-spacing="0"
       word-spacing="0"
       transform="matrix(2.8322156,0,0,2.8322156,-237.79118,1044.242)"
       id="text636"
       sodipodi:linespacing="125%">
      <tspan
         x="427.263"
         y="-272.84799"
         style="font-family:'Just Another Hand';-inkscape-font-specification:'Just Another Hand';text-align:center;text-anchor:middle"
         id="tspan638">Service Worker</tspan>
    </text>
  </g>
  <path
     d="m 1005.138,1839.6031 c 18.572,62.856 -6.42801,103.57 -6.42801,103.57"
     id="path640"
     inkscape:connector-curvature="0"
     style="fill:none;stroke:#4285f4;stroke-width:8;stroke-linecap:round;stroke-linejoin:round" />
  <path
     d="m 991.29099,1916.4071 30.15501,10.265 -23.98001,31.96 c 0,0 -2.075,2.25 -4.24,1.51 -2.166,-0.74 -2.31,-3.75 -2.31,-3.75 z m 4.282,-54.164 30.15501,-10.266 -23.98,-31.963 c 0,0 -2.07501,-2.25 -4.24001,-1.51 -2.166,0.74 -2.31,3.75 -2.31,3.75 z"
     id="path642"
     inkscape:connector-curvature="0"
     style="fill:#4285f4" />
  <g
     id="g644"
     transform="translate(30.607995,1231.6231)"
     style="fill:#666666">
    <g
       id="g4218"
       transform="matrix(0.75687178,0,0,0.75687178,237.01379,227.08686)">
      <path
         id="path646"
         d="m 1067.427,757.024 -39.488,-39.584 c -4.22,-4.222 -9.94,-6.597 -15.9,-6.597 l -113.859,0 c -12.402,0 -22.457,10.056 -22.457,22.458 l 0,178.26 c 0,12.41 10.054,22.46 22.456,22.46 l 153.34,0 c 12.4,0 22.46,-10.05 22.46,-22.45 l 0,-138.681 c -0.01,-5.946 -2.36,-11.65 -6.56,-15.86 z m -15.902,154.53 -153.338,0 0,-178.252 113.855,0 39.486,39.587 0,138.66 z"
         inkscape:connector-curvature="0"
         style="fill:#333333" />
      <path
         id="path648"
         d="m 921.28,742.472 c -6.202,0 -11.23,5.027 -11.23,11.228 l 0,29.475 c 0,6.2 5.028,11.23 11.23,11.23 6.2,0 11.227,-5.03 11.227,-11.23 l 0,-29.475 c 0,-6.2 -5.027,-11.228 -11.228,-11.228 z m 34.153,0 c -6.2,0 -11.228,5.027 -11.228,11.228 l 0,29.475 c 0,6.2 5.027,11.23 11.228,11.23 6.2,0 11.23,-5.03 11.23,-11.23 l 0,-29.475 c 0,-6.2 -5.03,-11.228 -11.23,-11.228 z m 34.152,0 c -6.2,0 -11.23,5.027 -11.23,11.228 l 0,29.475 c 0,6.2 5.03,11.23 11.23,11.23 6.2,0 11.23,-5.03 11.23,-11.23 l 0,-29.475 c 0,-6.2 -5.03,-11.228 -11.23,-11.228 z m 34.155,51.935 c 6.2,0 11.228,-5.028 11.228,-11.23 l 0,-9.824 c 0,-6.2 -5.027,-11.23 -11.23,-11.23 -6.2,0 -11.227,5.03 -11.227,11.23 l 0,9.825 c 0,6.2 5.03,11.23 11.23,11.23 z"
         inkscape:connector-curvature="0"
         style="fill:#4285f4" />
    </g>
    <text
       x="1124.536"
       y="-138.67799"
       style="font-size:28.50399971px;line-height:125%;font-family:Sans;letter-spacing:0;word-spacing:0;fill:#4285f4"
       font-size="28.504"
       letter-spacing="0"
       word-spacing="0"
       transform="matrix(2.8322156,0,0,2.8322156,-2210.7796,1444.968)"
       id="text650"
       sodipodi:linespacing="125%">
      <tspan
         x="1124.536"
         y="-138.67799"
         style="font-family:'Just Another Hand';-inkscape-font-specification:'Just Another Hand';text-align:center;text-anchor:middle"
         id="tspan652">Cache</tspan>
    </text>
  </g>
  <g
     inkscape:groupmode="layer"
     id="layer1"
     inkscape:label="Layer 1"
     style="display:inline">
    <g
       style="display:inline"
       id="g4521">
      <circle
         transform="matrix(0.30901699,-0.95105652,0.95105652,0.30901699,0,0)"
         style="fill:none;fill-opacity:1;stroke:#26a75b;stroke-width:6.03321218;stroke-miterlimit:4;stroke-dasharray:none;stroke-opacity:1"
         id="circle4251"
         cx="-216.91423"
         cy="716.26508"
         r="113.36505" />
      <circle
         transform="matrix(-0.809017,-0.58778525,0.58778525,-0.809017,0,0)"
         r="113.36505"
         cy="-236.21367"
         cx="-1094.0603"
         id="circle4257"
         style="fill:none;fill-opacity:1;stroke:#26a75b;stroke-width:6.03321218;stroke-miterlimit:4;stroke-dasharray:none;stroke-opacity:1" />
      <circle
         transform="matrix(-0.80901699,0.58778526,-0.58778526,-0.80901699,0,0)"
         style="fill:none;fill-opacity:1;stroke:#26a75b;stroke-width:6.03321218;stroke-miterlimit:4;stroke-dasharray:none;stroke-opacity:1"
         id="circle4263"
         cx="-459.25232"
         cy="-1364.7614"
         r="113.36505" />
      <circle
         r="113.36505"
         cy="176.38165"
         cx="960"
         id="circle4225"
         style="fill:none;fill-opacity:1;stroke:#26a75b;stroke-width:6.03321218;stroke-miterlimit:4;stroke-dasharray:none;stroke-opacity:1" />
      <circle
         transform="matrix(0.309017,0.95105651,-0.95105651,0.309017,0,0)"
         r="113.36505"
         cy="-1109.7634"
         cx="810.22681"
         id="circle4269"
         style="fill:none;fill-opacity:1;stroke:#26a75b;stroke-width:6.03321218;stroke-miterlimit:4;stroke-dasharray:none;stroke-opacity:1" />
    </g>
    <g
       style="display:inline"
       id="g4558">
      <g
         id="g4590"
         style="stroke:#9b9b9b;stroke-opacity:1">
        <path
           d="m 1128.6632,414.55491 c -230.64164,-16.62489 -345.39165,3.96546 -345.39165,3.96546"
           id="path624"
           inkscape:connector-curvature="0"
           style="fill:none;stroke:#9b9b9b;stroke-width:8;stroke-linecap:round;stroke-linejoin:round;stroke-opacity:1"
           sodipodi:nodetypes="cc" />
        <path
           sodipodi:nodetypes="cc"
           style="fill:none;stroke:#9b9b9b;stroke-width:8;stroke-linecap:round;stroke-linejoin:round;stroke-opacity:1"
           inkscape:connector-curvature="0"
           id="path4367"
           d="M 891.31512,338.92689 C 804.23172,553.14273 788.3546,668.63924 788.3546,668.63924" />
        <path
           d="M 759.47414,534.4261 C 936.29526,683.44367 1041.2327,734.23409 1041.2327,734.23409"
           id="path4375"
           inkscape:connector-curvature="0"
           style="fill:none;stroke:#9b9b9b;stroke-width:8;stroke-linecap:round;stroke-linejoin:round;stroke-opacity:1"
           sodipodi:nodetypes="cc" />
        <path
           sodipodi:nodetypes="cc"
           style="fill:none;stroke:#9b9b9b;stroke-width:8;stroke-linecap:round;stroke-linejoin:round;stroke-opacity:1"
           inkscape:connector-curvature="0"
           id="path4383"
           d="M 873.19001,729.0333 C 1069.5549,606.91538 1150.2869,522.80907 1150.2869,522.80907" />
        <path
           d="M 1129.3733,675.54808 C 1073.9123,451.05748 1018.8701,348.28651 1018.8701,348.28651"
           id="path4391"
           inkscape:connector-curvature="0"
           style="fill:none;stroke:#9b9b9b;stroke-width:8;stroke-linecap:round;stroke-linejoin:round;stroke-opacity:1"
           sodipodi:nodetypes="cc" />
        <path
           sodipodi:nodetypes="cc"
           style="fill:none;stroke:#9b9b9b;stroke-width:8;stroke-linecap:round;stroke-linejoin:round;stroke-opacity:1"
           inkscape:connector-curvature="0"
           id="path4399"
           d="m 1199.758,297.70125 c -16.3007,-37.29275 -67.93,-65.17464 -67.93,-65.17464" />
        <path
           d="m 787.74992,230.47072 c -40.50472,3.97883 -82.97628,44.46518 -82.97628,44.46518"
           id="path4423"
           inkscape:connector-curvature="0"
           style="fill:none;stroke:#9b9b9b;stroke-width:8;stroke-linecap:round;stroke-linejoin:round;stroke-opacity:1"
           sodipodi:nodetypes="cc" />
        <path
           sodipodi:nodetypes="cc"
           style="fill:none;stroke:#9b9b9b;stroke-width:8;stroke-linecap:round;stroke-linejoin:round;stroke-opacity:1"
           inkscape:connector-curvature="0"
           id="path4431"
           d="m 629.96435,598.6107 c -8.73255,39.7518 16.64783,92.65563 16.64783,92.65563" />
        <path
           d="m 918.16324,849.55995 c 35.1077,20.58914 93.26516,12.79915 93.26516,12.79915"
           id="path4439"
           inkscape:connector-curvature="0"
           style="fill:none;stroke:#9b9b9b;stroke-width:8;stroke-linecap:round;stroke-linejoin:round;stroke-opacity:1"
           sodipodi:nodetypes="cc" />
        <path
           sodipodi:nodetypes="cc"
           style="fill:none;stroke:#9b9b9b;stroke-width:8;stroke-linecap:round;stroke-linejoin:round;stroke-opacity:1"
           inkscape:connector-curvature="0"
           id="path4447"
           d="m 1241.2428,681.45571 c 30.4303,-27.02702 40.9932,-84.74533 40.9932,-84.74533" />
      </g>
      <g
         id="g4602"
         style="fill:#9b9b9b;fill-opacity:1">
        <path
           style="fill:#9b9b9b;fill-opacity:1"
           d="m 796.33411,400.35743 4.61721,31.51758 -39.38101,-6.7616 c 0,0 -2.94898,-0.82183 -3.28156,-3.08541 -0.33158,-2.26365 2.2776,-3.76204 2.2776,-3.76204 z"
           id="path4342"
           inkscape:connector-curvature="0" />
        <path
           style="fill:#9b9b9b;fill-opacity:1"
           d="m 1111.8618,431.52638 2.6833,-31.74173 36.807,15.55512 c 0,0 2.6842,1.47127 2.4902,3.75175 -0.1905,2.27899 -3.0744,3.14301 -3.0744,3.14301 z"
           id="path626"
           inkscape:connector-curvature="0" />
        <path
           inkscape:connector-curvature="0"
           id="path4369"
           d="m 775.11718,650.60335 31.4018,5.34824 -18.60007,35.36412 c 0,0 -1.69289,2.55069 -3.94845,2.1675 -2.25533,-0.38415 -2.8741,-3.32866 -2.8741,-3.32866 z"
           style="fill:#9b9b9b;fill-opacity:1" />
        <path
           inkscape:connector-curvature="0"
           id="path4371"
           d="m 902.26403,360.15042 -29.35898,-12.36074 26.16779,-30.19873 c 0,0 2.2287,-2.09814 4.33761,-1.2089 2.10858,0.88543 2.03915,3.89513 2.03915,3.89513 z"
           style="fill:#9b9b9b;fill-opacity:1" />
        <path
           style="fill:#9b9b9b;fill-opacity:1"
           d="m 1019.9889,741.25024 14.7902,-28.21219 27.8855,28.61783 c 0,0 1.9028,2.39824 0.8413,4.425 -1.0623,2.02623 -4.0539,1.70481 -4.0539,1.70481 z"
           id="path4377"
           inkscape:connector-curvature="0" />
        <path
           style="fill:#9b9b9b;fill-opacity:1"
           d="m 783.04232,530.57151 -20.82819,24.10236 -20.63441,-34.21896 c 0,0 -1.30673,-2.76799 0.19067,-4.49889 1.49367,-1.73176 4.33462,-0.73568 4.33462,-0.73568 z"
           id="path4379"
           inkscape:connector-curvature="0" />
        <path
           inkscape:connector-curvature="0"
           id="path4385"
           d="m 1150.3949,545.18118 -22.2609,-22.78433 35.8343,-17.67733 c 0,0 2.8688,-1.06849 4.4683,0.56729 1.5988,1.63644 0.3687,4.3823 0.3687,4.3823 z"
           style="fill:#9b9b9b;fill-opacity:1" />
        <path
           inkscape:connector-curvature="0"
           id="path4387"
           d="m 876.80704,705.42749 16.48644,27.25683 -38.92055,9.05024 c 0,0 -3.03631,0.38743 -4.21978,-1.57156 -1.18543,-1.95572 0.63981,-4.34981 0.63981,-4.34981 z"
           style="fill:#9b9b9b;fill-opacity:1" />
        <path
           style="fill:#9b9b9b;fill-opacity:1"
           d="m 1040.1806,355.09709 -28.5482,14.1307 -5.7387,-39.54302 c 0,0 -0.1297,-3.05861 1.9203,-4.0744 2.0504,-1.01486 4.2817,1.0036 4.2817,1.0036 z"
           id="path4393"
           inkscape:connector-curvature="0" />
        <path
           style="fill:#9b9b9b;fill-opacity:1"
           d="m 1108.0406,664.81349 31.0174,-7.25672 -3.4199,39.81232 c 0,0 -0.5698,3.00743 -2.7986,3.52761 -2.2263,0.52306 -3.9392,-1.95265 -3.9392,-1.95265 z"
           id="path4395"
           inkscape:connector-curvature="0" />
        <path
           inkscape:connector-curvature="0"
           id="path4401"
           d="m 1151.0445,226.48656 -17.186,26.82007 -25.2929,-30.93303 c 0,0 -1.6871,-2.55452 -0.4536,-4.48136 1.2344,-1.92624 4.1867,-1.34603 4.1867,-1.34603 z"
           style="fill:#9b9b9b;fill-opacity:1" />
        <path
           inkscape:connector-curvature="0"
           id="path4403"
           d="m 1182.9538,302.24754 27.1784,-16.61544 9.2344,38.87724 c 0,0 0.4019,3.03444 -1.5515,4.22718 -1.9499,1.19467 -4.3527,-0.61918 -4.3527,-0.61918 z"
           style="fill:#9b9b9b;fill-opacity:1" />
        <path
           style="fill:#9b9b9b;fill-opacity:1"
           d="m 704.96743,254.79344 20.19661,24.6328 -37.23497,14.49609 c 0,0 -2.95085,0.81518 -4.4022,-0.95341 -1.45052,-1.7692 0.0136,-4.39775 0.0136,-4.39775 z"
           id="path4425"
           inkscape:connector-curvature="0" />
        <path
           style="fill:#9b9b9b;fill-opacity:1"
           d="m 786.8809,247.85741 -7.40363,-30.98268 39.82806,3.23126 c 0,0 3.01011,0.55546 3.54084,2.78181 0.53363,2.22373 -1.93394,3.94837 -1.93394,3.94837 z"
           id="path4427"
           inkscape:connector-curvature="0" />
        <path
           inkscape:connector-curvature="0"
           id="path4433"
           d="m 627.51545,684.85766 29.66827,-11.59616 2.28036,39.8921 c 0,0 -0.13658,3.05832 -2.2671,3.89212 -2.13084,0.83281 -4.1783,-1.37194 -4.1783,-1.37194 z"
           style="fill:#9b9b9b;fill-opacity:1" />
        <path
           inkscape:connector-curvature="0"
           id="path4435"
           d="m 646.23154,604.80997 -31.75413,-2.5329 15.38066,-36.88022 c 0,0 1.45845,-2.69115 3.73984,-2.50792 2.27979,0.17966 3.1575,3.0594 3.1575,3.0594 z"
           style="fill:#9b9b9b;fill-opacity:1" />
        <path
           style="fill:#9b9b9b;fill-opacity:1"
           d="m 999.43222,878.54078 -1.8606,-31.79962 38.64428,10.15859 c 0,0 2.8665,1.07497 3.0011,3.35887 0.1336,2.28391 -2.596,3.54985 -2.596,3.54985 z"
           id="path4441"
           inkscape:connector-curvature="0" />
        <path
           style="fill:#9b9b9b;fill-opacity:1"
           d="m 929.08594,836.00462 -12.22151,29.41726 -30.32229,-26.02448 c 0,0 -2.10874,-2.21868 -1.22949,-4.3318 0.87536,-2.11268 3.88538,-2.05755 3.88538,-2.05755 z"
           id="path4443"
           inkscape:connector-curvature="0" />
        <path
           inkscape:connector-curvature="0"
           id="path4449"
           d="m 1293.9187,613.11988 -30.8182,-8.05708 21.6031,-33.61375 c 0,0 1.9081,-2.39396 4.1219,-1.81622 2.2134,0.57871 2.5739,3.56586 2.5739,3.56586 z"
           style="fill:#9b9b9b;fill-opacity:1" />
        <path
           inkscape:connector-curvature="0"
           id="path4451"
           d="m 1231.7262,666.87878 24.2008,20.71377 -34.1209,20.7962 c 0,0 -2.7617,1.31993 -4.4997,-0.16928 -1.7388,-1.48537 -0.7562,-4.33104 -0.7562,-4.33104 z"
           style="fill:#9b9b9b;fill-opacity:1" />
      </g>
    </g>
  </g>
  <g
     inkscape:groupmode="layer"
     id="layer2"
     inkscape:label="Layer 2"
     style="display:none">
    <g
       style="display:inline"
       id="g4505">
      <text
         x="1173.3271"
         y="845.78149"
         style="font-style:normal;font-variant:normal;font-weight:500;font-stretch:normal;font-size:51.25px;line-height:125%;font-family:'Futura PT';-inkscape-font-specification:'Futura PT, Medium';text-align:center;letter-spacing:0;word-spacing:0;writing-mode:lr-tb;text-anchor:middle;fill:#4285f4;fill-opacity:1"
         font-size="57.982"
         letter-spacing="0"
         word-spacing="0"
         id="text4281"
         sodipodi:linespacing="125%">
        <tspan
           x="1173.3271"
           y="845.78149"
           style="font-style:normal;font-variant:normal;font-weight:500;font-stretch:normal;font-size:51.25px;line-height:125%;font-family:'Futura PT';-inkscape-font-specification:'Futura PT, Medium';text-align:center;writing-mode:lr-tb;text-anchor:middle;fill:#4285f4;fill-opacity:1"
           font-weight="bold"
           id="tspan4283">Ops</tspan>
      </text>
      <text
         sodipodi:linespacing="125%"
         id="text4294"
         word-spacing="0"
         letter-spacing="0"
         font-size="57.982"
         style="font-style:normal;font-variant:normal;font-weight:500;font-stretch:normal;font-size:51.25px;line-height:125%;font-family:'Futura PT';-inkscape-font-specification:'Futura PT, Medium';text-align:center;letter-spacing:0;word-spacing:0;writing-mode:lr-tb;text-anchor:middle;fill:#4285f4;fill-opacity:1"
         y="845.78149"
         x="745.54095">
        <tspan
           id="tspan4296"
           font-weight="bold"
           style="font-style:normal;font-variant:normal;font-weight:500;font-stretch:normal;font-size:51.25px;line-height:125%;font-family:'Futura PT';-inkscape-font-specification:'Futura PT, Medium';text-align:center;writing-mode:lr-tb;text-anchor:middle;fill:#4285f4;fill-opacity:1"
           y="845.78149"
           x="745.54095">Support</tspan>
      </text>
      <text
         x="960.67383"
         y="193.67853"
         style="font-style:normal;font-variant:normal;font-weight:500;font-stretch:normal;font-size:51.25px;line-height:125%;font-family:'Futura PT';-inkscape-font-specification:'Futura PT, Medium';text-align:center;letter-spacing:0;word-spacing:0;writing-mode:lr-tb;text-anchor:middle;fill:#4285f4;fill-opacity:1"
         font-size="57.982"
         letter-spacing="0"
         word-spacing="0"
         id="text4302"
         sodipodi:linespacing="125%">
        <tspan
           x="960.67383"
           y="193.67853"
           style="font-style:normal;font-variant:normal;font-weight:500;font-stretch:normal;font-size:51.25px;line-height:125%;font-family:'Futura PT';-inkscape-font-specification:'Futura PT, Medium';text-align:center;writing-mode:lr-tb;text-anchor:middle;fill:#4285f4;fill-opacity:1"
           font-weight="bold"
           id="tspan4304">Writers</tspan>
      </text>
      <text
         sodipodi:linespacing="125%"
         id="text4310"
         y="416.77194"
         x="1304.5992"
         style="font-style:normal;font-variant:normal;font-weight:500;font-stretch:normal;font-size:51.25px;line-height:125%;font-family:'Futura PT';-inkscape-font-specification:'Futura PT, Medium';text-align:center;letter-spacing:0px;word-spacing:0px;writing-mode:lr-tb;text-anchor:middle;fill:#4285f4;fill-opacity:1;stroke:none;stroke-width:1px;stroke-linecap:butt;stroke-linejoin:miter;stroke-opacity:1"
         xml:space="preserve"><tspan
           y="416.77194"
           x="1304.5992"
           id="tspan4312"
           sodipodi:role="line">Docs</tspan><tspan
           id="tspan4314"
           y="480.83444"
           x="1304.5992"
           sodipodi:role="line">devs</tspan></text>
      <text
         xml:space="preserve"
         style="font-style:normal;font-variant:normal;font-weight:500;font-stretch:normal;font-size:51.25px;line-height:125%;font-family:'Futura PT';-inkscape-font-specification:'Futura PT, Medium';text-align:center;letter-spacing:0px;word-spacing:0px;writing-mode:lr-tb;text-anchor:middle;fill:#4285f4;fill-opacity:1;stroke:none;stroke-width:1px;stroke-linecap:butt;stroke-linejoin:miter;stroke-opacity:1"
         x="612.37567"
         y="419.94943"
         id="text4316"
         sodipodi:linespacing="125%"><tspan
           sodipodi:role="line"
           id="tspan4318"
           x="612.37567"
           y="419.94943">Product</tspan><tspan
           sodipodi:role="line"
           x="612.37567"
           y="484.01193"
           id="tspan4320">devs</tspan></text>
    </g>
  </g>
  <g
     inkscape:groupmode="layer"
     id="layer3"
     inkscape:label="Layer 3">
    <g
       id="g4783"
       style="display:inline">
      <g
         style="font-style:normal;font-variant:normal;font-weight:500;font-stretch:normal;font-size:51.25px;line-height:125%;font-family:'Futura PT';-inkscape-font-specification:'Futura PT, Medium';text-align:center;letter-spacing:0;word-spacing:0;writing-mode:lr-tb;text-anchor:middle;fill:#4285f4;fill-opacity:1"
         id="text4785">
        <path
           d="m 1148.583,810.82899 c -10.7625,0 -18.245,7.4825 -18.245,17.88625 0,10.40375 7.4825,17.835 18.245,17.835 10.7625,0 18.245,-7.43125 18.245,-17.835 0,-10.40375 -7.4825,-17.88625 -18.245,-17.88625 z m 0,29.67375 c -6.6625,0 -11.3775,-4.86875 -11.3775,-11.7875 0,-6.91875 4.715,-11.83875 11.3775,-11.83875 6.6625,0 11.3775,4.92 11.3775,11.83875 0,6.91875 -4.715,11.7875 -11.3775,11.7875 z"
           style="font-style:normal;font-variant:normal;font-weight:500;font-stretch:normal;font-size:51.25px;line-height:125%;font-family:'Futura PT';-inkscape-font-specification:'Futura PT, Medium';text-align:center;writing-mode:lr-tb;text-anchor:middle;fill:#4285f4;fill-opacity:1"
           id="path4823" />
        <path
           d="m 1178.348,842.91149 c 2.46,3.33125 5.5863,3.5875 7.1238,3.5875 3.28,0 5.8425,-1.28125 7.5337,-2.87 1.2813,-1.23 3.485,-3.94625 3.485,-8.96875 0,-4.4075 -1.6912,-7.175 -3.3312,-8.815 -2.5113,-2.51125 -5.6375,-2.9725 -7.585,-2.9725 -4.1,0 -6.2525,2.20375 -7.2263,3.5875 l 0,-2.87 -6.2525,0 0,33.9275 6.2525,0 0,-14.60625 z m 5.535,-14.50375 c 1.4863,0 3.1263,0.56375 4.2538,1.58875 1.23,1.17875 1.8962,3.02375 1.8962,4.66375 0,1.64 -0.615,3.485 -1.9475,4.715 -0.82,0.76875 -2.1525,1.58875 -4.2025,1.58875 -1.9475,0 -3.28,-0.76875 -4.1,-1.48625 -1.23,-1.07625 -2.05,-2.7675 -2.05,-4.8175 0,-2.05 0.7175,-3.5875 2.1013,-4.76625 1.1275,-1.025 2.4087,-1.48625 4.0487,-1.48625 z"
           style="font-style:normal;font-variant:normal;font-weight:500;font-stretch:normal;font-size:51.25px;line-height:125%;font-family:'Futura PT';-inkscape-font-specification:'Futura PT, Medium';text-align:center;writing-mode:lr-tb;text-anchor:middle;fill:#4285f4;fill-opacity:1"
           id="path4825" />
        <path
           d="m 1215.9936,825.23024 c -2.8188,-2.1525 -5.4325,-2.3575 -7.0725,-2.3575 -1.7938,0 -4.0488,0.205 -5.7913,1.58875 -1.2812,1.07625 -2.3062,2.87 -2.3062,5.0225 0,1.79375 0.6662,3.1775 1.6912,4.25375 1.3325,1.38375 3.1775,2.10125 4.7663,2.665 l 1.435,0.5125 c 0.82,0.3075 1.9475,0.87125 1.9475,2.255 0,1.5375 -1.3325,2.40875 -3.075,2.40875 -1.845,0 -3.69,-1.1275 -4.92,-2.5625 l -3.28,3.7925 c 1.3837,1.48625 3.9975,3.69 8.61,3.69 2.7162,0 4.8687,-0.7175 6.6625,-2.3575 1.7937,-1.64 2.46,-3.63875 2.46,-5.6375 0,-1.435 -0.4613,-2.7675 -1.1275,-3.69 -1.2813,-1.7425 -3.895,-2.61375 -5.6375,-3.1775 l -1.4863,-0.46125 c -1.7425,-0.56375 -1.9987,-1.435 -1.9987,-1.99875 0,-1.07625 0.9225,-1.79375 2.4087,-1.79375 0.6663,0 2.1525,0.1025 3.6388,1.48625 l 3.075,-3.63875 z"
           style="font-style:normal;font-variant:normal;font-weight:500;font-stretch:normal;font-size:51.25px;line-height:125%;font-family:'Futura PT';-inkscape-font-specification:'Futura PT, Medium';text-align:center;writing-mode:lr-tb;text-anchor:middle;fill:#4285f4;fill-opacity:1"
           id="path4827" />
      </g>
      <g
         style="font-style:normal;font-variant:normal;font-weight:500;font-stretch:normal;font-size:51.25px;line-height:125%;font-family:'Futura PT';-inkscape-font-specification:'Futura PT, Medium';text-align:center;letter-spacing:0;word-spacing:0;writing-mode:lr-tb;text-anchor:middle;fill:#4285f4;fill-opacity:1"
         id="text4789">
        <path
           d="m 681.64502,814.82649 c -3.485,-3.5875 -7.53375,-3.9975 -9.68625,-3.9975 -7.585,0 -10.9675,5.0225 -10.9675,10.045 0,3.485 1.58875,5.38125 2.71625,6.355 1.7425,1.5375 3.895,2.3575 5.68875,2.9725 1.9475,0.66625 3.9975,1.3325 5.27875,2.51125 0.9225,0.87125 1.3325,1.845 1.3325,3.075 0,2.87 -2.255,4.715 -5.27875,4.715 -2.40875,0 -5.535,-1.23 -7.175,-4.56125 l -4.35625,4.15125 c 1.79375,2.61375 5.48375,6.4575 11.7875,6.4575 7.0725,0 11.89,-4.56125 11.89,-11.22375 0,-3.485 -1.38375,-5.79125 -2.92125,-7.175 -1.7425,-1.58875 -4.25375,-2.51125 -6.91875,-3.43375 -2.1525,-0.76875 -3.28,-1.17875 -4.1,-1.9475 -0.82,-0.7175 -1.07625,-1.48625 -1.07625,-2.30625 0,-1.7425 1.1275,-3.9975 4.715,-3.9975 1.23,0 3.5875,0.25625 5.58625,2.92125 l 3.485,-4.56125 z"
           style="font-style:normal;font-variant:normal;font-weight:500;font-stretch:normal;font-size:51.25px;line-height:125%;font-family:'Futura PT';-inkscape-font-specification:'Futura PT, Medium';text-align:center;writing-mode:lr-tb;text-anchor:middle;fill:#4285f4;fill-opacity:1"
           id="path4830" />
        <path
           d="m 687.75418,823.59024 0,13.58125 c 0,1.99875 0.25625,4.66375 2.71625,6.81625 2.05,1.79375 5.33,2.51125 8.04625,2.51125 2.71625,0 5.99625,-0.7175 8.04625,-2.51125 2.46,-2.1525 2.71625,-4.8175 2.71625,-6.81625 l 0,-13.58125 -6.2525,0 0,12.55625 c 0,1.17875 -0.1025,2.7675 -1.3325,3.895 -0.76875,0.66625 -1.99875,1.1275 -3.1775,1.1275 -1.17875,0 -2.40875,-0.46125 -3.1775,-1.1275 -1.23,-1.1275 -1.3325,-2.71625 -1.3325,-3.895 l 0,-12.55625 -6.2525,0 z"
           style="font-style:normal;font-variant:normal;font-weight:500;font-stretch:normal;font-size:51.25px;line-height:125%;font-family:'Futura PT';-inkscape-font-specification:'Futura PT, Medium';text-align:center;writing-mode:lr-tb;text-anchor:middle;fill:#4285f4;fill-opacity:1"
           id="path4832" />
        <path
           d="m 721.43344,842.91149 c 2.46,3.33125 5.58625,3.5875 7.12375,3.5875 3.28,0 5.8425,-1.28125 7.53375,-2.87 1.28125,-1.23 3.485,-3.94625 3.485,-8.96875 0,-4.4075 -1.69125,-7.175 -3.33125,-8.815 -2.51125,-2.51125 -5.6375,-2.9725 -7.585,-2.9725 -4.1,0 -6.2525,2.20375 -7.22625,3.5875 l 0,-2.87 -6.2525,0 0,33.9275 6.2525,0 0,-14.60625 z m 5.535,-14.50375 c 1.48625,0 3.12625,0.56375 4.25375,1.58875 1.23,1.17875 1.89625,3.02375 1.89625,4.66375 0,1.64 -0.615,3.485 -1.9475,4.715 -0.82,0.76875 -2.1525,1.58875 -4.2025,1.58875 -1.9475,0 -3.28,-0.76875 -4.1,-1.48625 -1.23,-1.07625 -2.05,-2.7675 -2.05,-4.8175 0,-2.05 0.7175,-3.5875 2.10125,-4.76625 1.1275,-1.025 2.40875,-1.48625 4.04875,-1.48625 z"
           style="font-style:normal;font-variant:normal;font-weight:500;font-stretch:normal;font-size:51.25px;line-height:125%;font-family:'Futura PT';-inkscape-font-specification:'Futura PT, Medium';text-align:center;writing-mode:lr-tb;text-anchor:middle;fill:#4285f4;fill-opacity:1"
           id="path4834" />
        <path
           d="m 750.66195,842.91149 c 2.46,3.33125 5.58625,3.5875 7.12375,3.5875 3.28,0 5.8425,-1.28125 7.53375,-2.87 1.28125,-1.23 3.485,-3.94625 3.485,-8.96875 0,-4.4075 -1.69125,-7.175 -3.33125,-8.815 -2.51125,-2.51125 -5.6375,-2.9725 -7.585,-2.9725 -4.1,0 -6.2525,2.20375 -7.22625,3.5875 l 0,-2.87 -6.2525,0 0,33.9275 6.2525,0 0,-14.60625 z m 5.535,-14.50375 c 1.48625,0 3.12625,0.56375 4.25375,1.58875 1.23,1.17875 1.89625,3.02375 1.89625,4.66375 0,1.64 -0.615,3.485 -1.9475,4.715 -0.82,0.76875 -2.1525,1.58875 -4.2025,1.58875 -1.9475,0 -3.28,-0.76875 -4.1,-1.48625 -1.23,-1.07625 -2.05,-2.7675 -2.05,-4.8175 0,-2.05 0.7175,-3.5875 2.10125,-4.76625 1.1275,-1.025 2.40875,-1.48625 4.04875,-1.48625 z"
           style="font-style:normal;font-variant:normal;font-weight:500;font-stretch:normal;font-size:51.25px;line-height:125%;font-family:'Futura PT';-inkscape-font-specification:'Futura PT, Medium';text-align:center;writing-mode:lr-tb;text-anchor:middle;fill:#4285f4;fill-opacity:1"
           id="path4836" />
        <path
           d="m 785.22047,822.87274 c -4.2025,0 -7.0725,1.38375 -8.96875,3.12625 -2.20375,1.99875 -3.74125,5.07375 -3.74125,8.7125 0,3.5875 1.5375,6.6625 3.74125,8.66125 1.89625,1.7425 4.76625,3.12625 8.96875,3.12625 4.2025,0 7.0725,-1.38375 8.96875,-3.12625 2.20375,-1.99875 3.74125,-5.07375 3.74125,-8.66125 0,-3.63875 -1.5375,-6.71375 -3.74125,-8.7125 -1.89625,-1.7425 -4.76625,-3.12625 -8.96875,-3.12625 z m 0,18.09125 c -3.63875,0 -6.2525,-2.87 -6.2525,-6.2525 0,-3.485 2.665,-6.30375 6.2525,-6.30375 3.5875,0 6.2525,2.81875 6.2525,6.30375 0,3.3825 -2.61375,6.2525 -6.2525,6.2525 z"
           style="font-style:normal;font-variant:normal;font-weight:500;font-stretch:normal;font-size:51.25px;line-height:125%;font-family:'Futura PT';-inkscape-font-specification:'Futura PT, Medium';text-align:center;writing-mode:lr-tb;text-anchor:middle;fill:#4285f4;fill-opacity:1"
           id="path4838" />
        <path
           d="m 802.76638,845.78149 6.2525,0 0,-10.66 c 0,-1.5375 0.0512,-3.43375 1.23,-4.92 1.23,-1.5375 2.9725,-1.79375 4.15125,-1.79375 1.28125,0 2.10125,0.25625 2.92125,0.82 l 0.82,-5.8425 c -0.7175,-0.25625 -1.58875,-0.5125 -2.665,-0.5125 -1.48625,0 -2.71625,0.35875 -3.69,0.97375 -0.46125,0.25625 -1.79375,1.17875 -2.7675,3.075 l 0,-3.33125 -6.2525,0 0,22.19125 z"
           style="font-style:normal;font-variant:normal;font-weight:500;font-stretch:normal;font-size:51.25px;line-height:125%;font-family:'Futura PT';-inkscape-font-specification:'Futura PT, Medium';text-align:center;writing-mode:lr-tb;text-anchor:middle;fill:#4285f4;fill-opacity:1"
           id="path4840" />
        <path
           d="m 833.34342,828.92024 0,-5.33 -4.305,0 0,-7.585 -6.2525,0 0,7.585 -2.46,0 0,5.33 2.46,0 0,16.86125 6.2525,0 0,-16.86125 4.305,0 z"
           style="font-style:normal;font-variant:normal;font-weight:500;font-stretch:normal;font-size:51.25px;line-height:125%;font-family:'Futura PT';-inkscape-font-specification:'Futura PT, Medium';text-align:center;writing-mode:lr-tb;text-anchor:middle;fill:#4285f4;fill-opacity:1"
           id="path4842" />
      </g>
      <g
         style="font-style:normal;font-variant:normal;font-weight:500;font-stretch:normal;font-size:51.25px;line-height:125%;font-family:'Futura PT';-inkscape-font-specification:'Futura PT, Medium';text-align:center;letter-spacing:0;word-spacing:0;writing-mode:lr-tb;text-anchor:middle;fill:#4285f4;fill-opacity:1"
         id="text4793">
        <path
           d="m 906.15264,171.99978 7.4825,21.67875 5.0225,0 12.65875,-34.18375 -7.0725,0 -8.2,23.2675 -7.8925,-23.575 -3.69,0 -8.35375,23.575 -7.63625,-23.2675 -7.0725,0 11.89,34.18375 5.0225,0 7.84125,-21.67875 z"
           style="font-style:normal;font-variant:normal;font-weight:500;font-stretch:normal;font-size:51.25px;line-height:125%;font-family:'Futura PT';-inkscape-font-specification:'Futura PT, Medium';text-align:center;writing-mode:lr-tb;text-anchor:middle;fill:#4285f4;fill-opacity:1"
           id="path4845" />
        <path
           d="m 933.31674,193.67853 6.2525,0 0,-10.66 c 0,-1.5375 0.0512,-3.43375 1.23,-4.92 1.23,-1.5375 2.9725,-1.79375 4.15125,-1.79375 1.28125,0 2.10125,0.25625 2.92125,0.82 l 0.82,-5.8425 c -0.7175,-0.25625 -1.58875,-0.5125 -2.665,-0.5125 -1.48625,0 -2.71625,0.35875 -3.69,0.97375 -0.46125,0.25625 -1.79375,1.17875 -2.7675,3.075 l 0,-3.33125 -6.2525,0 0,22.19125 z"
           style="font-style:normal;font-variant:normal;font-weight:500;font-stretch:normal;font-size:51.25px;line-height:125%;font-family:'Futura PT';-inkscape-font-specification:'Futura PT, Medium';text-align:center;writing-mode:lr-tb;text-anchor:middle;fill:#4285f4;fill-opacity:1"
           id="path4847" />
        <path
           d="m 951.73471,171.48728 0,22.19125 6.2525,0 0,-22.19125 -6.2525,0 z m -0.615,-9.37875 c 0,2.05 1.69125,3.74125 3.74125,3.74125 2.05,0 3.74125,-1.69125 3.74125,-3.74125 0,-2.05 -1.69125,-3.74125 -3.74125,-3.74125 -2.05,0 -3.74125,1.69125 -3.74125,3.74125 z"
           style="font-style:normal;font-variant:normal;font-weight:500;font-stretch:normal;font-size:51.25px;line-height:125%;font-family:'Futura PT';-inkscape-font-specification:'Futura PT, Medium';text-align:center;writing-mode:lr-tb;text-anchor:middle;fill:#4285f4;fill-opacity:1"
           id="path4849" />
        <path
           d="m 974.50412,176.81728 0,-5.33 -4.305,0 0,-7.585 -6.2525,0 0,7.585 -2.46,0 0,5.33 2.46,0 0,16.86125 6.2525,0 0,-16.86125 4.305,0 z"
           style="font-style:normal;font-variant:normal;font-weight:500;font-stretch:normal;font-size:51.25px;line-height:125%;font-family:'Futura PT';-inkscape-font-specification:'Futura PT, Medium';text-align:center;writing-mode:lr-tb;text-anchor:middle;fill:#4285f4;fill-opacity:1"
           id="path4851" />
        <path
           d="m 993.80135,186.55478 c -1.025,1.79375 -2.81875,2.92125 -5.17625,2.92125 -2.40875,0 -3.7925,-1.17875 -4.45875,-2.10125 -0.7175,-0.97375 -1.07625,-2.40875 -1.07625,-3.74125 l 16.605,0 0,-0.5125 c 0,-2.40875 -0.3075,-5.89375 -2.665,-8.7125 -1.5375,-1.845 -4.15125,-3.63875 -8.66125,-3.63875 -2.665,0 -5.74,0.56375 -8.35375,3.12625 -1.58875,1.58875 -3.3825,4.305 -3.3825,8.7125 0,3.485 1.025,6.355 3.485,8.66125 2.20375,2.10125 4.92,3.12625 8.5075,3.12625 7.73875,0 10.25,-5.27875 10.91625,-6.91875 l -5.74,-0.9225 z m -10.50625,-6.91875 c 0.5125,-2.9725 2.92125,-4.45875 5.2275,-4.45875 2.30625,0 4.76625,1.435 5.27875,4.45875 l -10.50625,0 z"
           style="font-style:normal;font-variant:normal;font-weight:500;font-stretch:normal;font-size:51.25px;line-height:125%;font-family:'Futura PT';-inkscape-font-specification:'Futura PT, Medium';text-align:center;writing-mode:lr-tb;text-anchor:middle;fill:#4285f4;fill-opacity:1"
           id="path4853" />
        <path
           d="m 1004.4862,193.67853 6.2525,0 0,-10.66 c 0,-1.5375 0.051,-3.43375 1.23,-4.92 1.23,-1.5375 2.9725,-1.79375 4.1512,-1.79375 1.2813,0 2.1013,0.25625 2.9213,0.82 l 0.82,-5.8425 c -0.7175,-0.25625 -1.5888,-0.5125 -2.665,-0.5125 -1.4863,0 -2.7163,0.35875 -3.69,0.97375 -0.4613,0.25625 -1.7938,1.17875 -2.7675,3.075 l 0,-3.33125 -6.2525,0 0,22.19125 z"
           style="font-style:normal;font-variant:normal;font-weight:500;font-stretch:normal;font-size:51.25px;line-height:125%;font-family:'Futura PT';-inkscape-font-specification:'Futura PT, Medium';text-align:center;writing-mode:lr-tb;text-anchor:middle;fill:#4285f4;fill-opacity:1"
           id="path4855" />
        <path
           d="m 1037.4736,173.12728 c -2.8188,-2.1525 -5.4325,-2.3575 -7.0725,-2.3575 -1.7938,0 -4.0488,0.205 -5.7913,1.58875 -1.2812,1.07625 -2.3062,2.87 -2.3062,5.0225 0,1.79375 0.6662,3.1775 1.6912,4.25375 1.3325,1.38375 3.1775,2.10125 4.7663,2.665 l 1.435,0.5125 c 0.82,0.3075 1.9475,0.87125 1.9475,2.255 0,1.5375 -1.3325,2.40875 -3.075,2.40875 -1.845,0 -3.69,-1.1275 -4.92,-2.5625 l -3.28,3.7925 c 1.3837,1.48625 3.9975,3.69 8.61,3.69 2.7162,0 4.8687,-0.7175 6.6625,-2.3575 1.7937,-1.64 2.46,-3.63875 2.46,-5.6375 0,-1.435 -0.4613,-2.7675 -1.1275,-3.69 -1.2813,-1.7425 -3.895,-2.61375 -5.6375,-3.1775 l -1.4863,-0.46125 c -1.7425,-0.56375 -1.9987,-1.435 -1.9987,-1.99875 0,-1.07625 0.9225,-1.79375 2.4087,-1.79375 0.6663,0 2.1525,0.1025 3.6388,1.48625 l 3.075,-3.63875 z"
           style="font-style:normal;font-variant:normal;font-weight:500;font-stretch:normal;font-size:51.25px;line-height:125%;font-family:'Futura PT';-inkscape-font-specification:'Futura PT, Medium';text-align:center;writing-mode:lr-tb;text-anchor:middle;fill:#4285f4;fill-opacity:1"
           id="path4857" />
      </g>
      <g
         style="font-style:normal;font-variant:normal;font-weight:500;font-stretch:normal;font-size:51.25px;line-height:125%;font-family:'Futura PT';-inkscape-font-specification:'Futura PT, Medium';text-align:center;letter-spacing:0px;word-spacing:0px;writing-mode:lr-tb;text-anchor:middle;fill:#4285f4;fill-opacity:1;stroke:none;stroke-width:1px;stroke-linecap:butt;stroke-linejoin:miter;stroke-opacity:1"
         id="text4797">
        <path
           d="m 1255.6927,382.58819 0,34.18375 8.815,0 c 4.7663,0 8.5075,-0.46125 12.505,-3.28 4.51,-3.1775 6.8675,-8.0975 6.8675,-13.78625 0,-5.68875 -2.4087,-10.66 -6.56,-13.78625 -3.7925,-2.81875 -7.9437,-3.33125 -12.71,-3.33125 l -8.9175,0 z m 6.6625,5.74 2.05,0 c 2.255,0 5.6375,0.205 8.405,2.255 2.7163,2.05 4.2025,5.535 4.2025,9.1225 0,3.63875 -1.5375,7.12375 -4.2537,9.07125 -2.9725,2.1525 -6.6625,2.255 -8.3538,2.255 l -2.05,0 0,-22.70375 z"
           style=""
           id="path4860" />
        <path
           d="m 1300.6862,393.86319 c -4.2025,0 -7.0725,1.38375 -8.9687,3.12625 -2.2038,1.99875 -3.7413,5.07375 -3.7413,8.7125 0,3.5875 1.5375,6.6625 3.7413,8.66125 1.8962,1.7425 4.7662,3.12625 8.9687,3.12625 4.2025,0 7.0725,-1.38375 8.9688,-3.12625 2.2037,-1.99875 3.7412,-5.07375 3.7412,-8.66125 0,-3.63875 -1.5375,-6.71375 -3.7412,-8.7125 -1.8963,-1.7425 -4.7663,-3.12625 -8.9688,-3.12625 z m 0,18.09125 c -3.6387,0 -6.2525,-2.87 -6.2525,-6.2525 0,-3.485 2.665,-6.30375 6.2525,-6.30375 3.5875,0 6.2525,2.81875 6.2525,6.30375 0,3.3825 -2.6137,6.2525 -6.2525,6.2525 z"
           style=""
           id="path4862" />
        <path
           d="m 1334.9396,395.19569 c -1.7937,-0.87125 -3.69,-1.3325 -5.9962,-1.3325 -2.1525,0 -5.2788,0.46125 -7.995,2.87 -2.255,1.99875 -3.8438,5.125 -3.8438,9.02 0,4.15125 1.845,6.91875 3.5363,8.5075 1.9987,1.89625 5.0737,3.22875 8.5587,3.22875 2.5625,0 4.51,-0.76875 5.74,-1.38375 l 0,-6.09875 c -1.6912,1.5375 -3.5362,1.9475 -4.92,1.9475 -3.7412,0 -6.4575,-2.665 -6.4575,-6.30375 0,-3.22875 2.1013,-6.2525 6.2525,-6.2525 2.1525,0 3.7925,0.7175 5.125,1.9475 l 0,-6.15 z"
           style=""
           id="path4864" />
        <path
           d="m 1354.823,396.22069 c -2.8187,-2.1525 -5.4325,-2.3575 -7.0725,-2.3575 -1.7937,0 -4.0487,0.205 -5.7912,1.58875 -1.2813,1.07625 -2.3063,2.87 -2.3063,5.0225 0,1.79375 0.6663,3.1775 1.6913,4.25375 1.3325,1.38375 3.1775,2.10125 4.7662,2.665 l 1.435,0.5125 c 0.82,0.3075 1.9475,0.87125 1.9475,2.255 0,1.5375 -1.3325,2.40875 -3.075,2.40875 -1.845,0 -3.69,-1.1275 -4.92,-2.5625 l -3.28,3.7925 c 1.3838,1.48625 3.9975,3.69 8.61,3.69 2.7163,0 4.8688,-0.7175 6.6625,-2.3575 1.7938,-1.64 2.46,-3.63875 2.46,-5.6375 0,-1.435 -0.4612,-2.7675 -1.1275,-3.69 -1.2812,-1.7425 -3.895,-2.61375 -5.6375,-3.1775 l -1.4862,-0.46125 c -1.7425,-0.56375 -1.9988,-1.435 -1.9988,-1.99875 0,-1.07625 0.9225,-1.79375 2.4088,-1.79375 0.6662,0 2.1525,0.1025 3.6387,1.48625 l 3.075,-3.63875 z"
           style=""
           id="path4866" />
        <path
           d="m 1273.8372,461.51319 c -2.1012,-3.28 -5.4325,-3.5875 -7.1237,-3.5875 -6.56,0 -11.0188,5.2275 -11.0188,11.7875 0,6.50875 4.51,11.83875 11.3263,11.83875 1.5887,0 4.5612,-0.35875 6.8162,-3.5875 l 0,2.87 6.2525,0 0,-37.36125 -6.2525,0 0,18.04 z m -5.535,1.9475 c 3.5875,0 6.15,2.71625 6.15,6.2525 0,3.53625 -2.5625,6.30375 -6.15,6.30375 -3.5875,0 -6.15,-2.7675 -6.15,-6.30375 0,-3.53625 2.5625,-6.2525 6.15,-6.2525 z"
           style=""
           id="path4868" />
        <path
           d="m 1302.092,473.71069 c -1.025,1.79375 -2.8188,2.92125 -5.1763,2.92125 -2.4087,0 -3.7925,-1.17875 -4.4587,-2.10125 -0.7175,-0.97375 -1.0763,-2.40875 -1.0763,-3.74125 l 16.605,0 0,-0.5125 c 0,-2.40875 -0.3075,-5.89375 -2.665,-8.7125 -1.5375,-1.845 -4.1512,-3.63875 -8.6612,-3.63875 -2.665,0 -5.74,0.56375 -8.3538,3.12625 -1.5887,1.58875 -3.3825,4.305 -3.3825,8.7125 0,3.485 1.025,6.355 3.485,8.66125 2.2038,2.10125 4.92,3.12625 8.5075,3.12625 7.7388,0 10.25,-5.27875 10.9163,-6.91875 l -5.74,-0.9225 z m -10.5063,-6.91875 c 0.5125,-2.9725 2.9213,-4.45875 5.2275,-4.45875 2.3063,0 4.7663,1.435 5.2788,4.45875 l -10.5063,0 z"
           style=""
           id="path4870" />
        <path
           d="m 1309.4063,458.64319 11.1725,22.19125 3.28,0 11.1725,-22.19125 -6.97,0 -5.8425,12.505 -5.8425,-12.505 -6.97,0 z"
           style=""
           id="path4872" />
        <path
           d="m 1352.771,460.28319 c -2.8187,-2.1525 -5.4325,-2.3575 -7.0725,-2.3575 -1.7937,0 -4.0487,0.205 -5.7912,1.58875 -1.2813,1.07625 -2.3063,2.87 -2.3063,5.0225 0,1.79375 0.6663,3.1775 1.6913,4.25375 1.3325,1.38375 3.1775,2.10125 4.7662,2.665 l 1.435,0.5125 c 0.82,0.3075 1.9475,0.87125 1.9475,2.255 0,1.5375 -1.3325,2.40875 -3.075,2.40875 -1.845,0 -3.69,-1.1275 -4.92,-2.5625 l -3.28,3.7925 c 1.3838,1.48625 3.9975,3.69 8.61,3.69 2.7163,0 4.8688,-0.7175 6.6625,-2.3575 1.7938,-1.64 2.46,-3.63875 2.46,-5.6375 0,-1.435 -0.4612,-2.7675 -1.1275,-3.69 -1.2812,-1.7425 -3.895,-2.61375 -5.6375,-3.1775 l -1.4862,-0.46125 c -1.7425,-0.56375 -1.9988,-1.435 -1.9988,-1.99875 0,-1.07625 0.9225,-1.79375 2.4088,-1.79375 0.6662,0 2.1525,0.1025 3.6387,1.48625 l 3.075,-3.63875 z"
           style=""
           id="path4874" />
      </g>
      <g
         style="font-style:normal;font-variant:normal;font-weight:500;font-stretch:normal;font-size:51.25px;line-height:125%;font-family:'Futura PT';-inkscape-font-specification:'Futura PT, Medium';text-align:center;letter-spacing:0px;word-spacing:0px;writing-mode:lr-tb;text-anchor:middle;fill:#4285f4;fill-opacity:1;stroke:none;stroke-width:1px;stroke-linecap:butt;stroke-linejoin:miter;stroke-opacity:1"
         id="text4803">
        <path
           d="m 532.88932,385.76568 0,34.18375 6.6625,0 0,-12.65875 4.305,0 c 3.94625,0 6.765,-1.1275 8.66125,-3.02375 2.61375,-2.61375 2.81875,-6.30375 2.81875,-7.63625 0,-2.46 -0.7175,-5.79125 -3.485,-8.25125 -2.51125,-2.20375 -5.17625,-2.61375 -9.02,-2.61375 l -9.9425,0 z m 6.6625,5.74 2.30625,0 c 1.58875,0 3.33125,0.1025 4.715,1.07625 0.97375,0.7175 1.89625,1.99875 1.89625,3.895 0,1.48625 -0.615,3.02375 -1.845,3.9975 -1.435,1.07625 -3.075,1.07625 -4.35625,1.07625 l -2.71625,0 0,-10.045 z"
           style=""
           id="path4877" />
        <path
           d="m 559.29348,419.94943 6.2525,0 0,-10.66 c 0,-1.5375 0.0512,-3.43375 1.23,-4.92 1.23,-1.5375 2.9725,-1.79375 4.15125,-1.79375 1.28125,0 2.10125,0.25625 2.92125,0.82 l 0.82,-5.8425 c -0.7175,-0.25625 -1.58875,-0.5125 -2.665,-0.5125 -1.48625,0 -2.71625,0.35875 -3.69,0.97375 -0.46125,0.25625 -1.79375,1.17875 -2.7675,3.075 l 0,-3.33125 -6.2525,0 0,22.19125 z"
           style=""
           id="path4879" />
        <path
           d="m 588.79346,397.04068 c -4.2025,0 -7.0725,1.38375 -8.96875,3.12625 -2.20375,1.99875 -3.74125,5.07375 -3.74125,8.7125 0,3.5875 1.5375,6.6625 3.74125,8.66125 1.89625,1.7425 4.76625,3.12625 8.96875,3.12625 4.2025,0 7.0725,-1.38375 8.96875,-3.12625 2.20375,-1.99875 3.74125,-5.07375 3.74125,-8.66125 0,-3.63875 -1.5375,-6.71375 -3.74125,-8.7125 -1.89625,-1.7425 -4.76625,-3.12625 -8.96875,-3.12625 z m 0,18.09125 c -3.63875,0 -6.2525,-2.87 -6.2525,-6.2525 0,-3.485 2.665,-6.30375 6.2525,-6.30375 3.5875,0 6.2525,2.81875 6.2525,6.30375 0,3.3825 -2.61375,6.2525 -6.2525,6.2525 z"
           style=""
           id="path4881" />
        <path
           d="m 623.35438,400.62818 c -2.10125,-3.28 -5.4325,-3.5875 -7.12375,-3.5875 -6.56,0 -11.01875,5.2275 -11.01875,11.7875 0,6.50875 4.51,11.83875 11.32625,11.83875 1.58875,0 4.56125,-0.35875 6.81625,-3.5875 l 0,2.87 6.2525,0 0,-37.36125 -6.2525,0 0,18.04 z m -5.535,1.9475 c 3.5875,0 6.15,2.71625 6.15,6.2525 0,3.53625 -2.5625,6.30375 -6.15,6.30375 -3.5875,0 -6.15,-2.7675 -6.15,-6.30375 0,-3.53625 2.5625,-6.2525 6.15,-6.2525 z"
           style=""
           id="path4883" />
        <path
           d="m 635.5679,397.75818 0,13.58125 c 0,1.99875 0.25625,4.66375 2.71625,6.81625 2.05,1.79375 5.33,2.51125 8.04625,2.51125 2.71625,0 5.99625,-0.7175 8.04625,-2.51125 2.46,-2.1525 2.71625,-4.8175 2.71625,-6.81625 l 0,-13.58125 -6.2525,0 0,12.55625 c 0,1.17875 -0.1025,2.7675 -1.3325,3.895 -0.76875,0.66625 -1.99875,1.1275 -3.1775,1.1275 -1.17875,0 -2.40875,-0.46125 -3.1775,-1.1275 -1.23,-1.1275 -1.3325,-2.71625 -1.3325,-3.895 l 0,-12.55625 -6.2525,0 z"
           style=""
           id="path4885" />
        <path
           d="m 679.70216,398.37318 c -1.79375,-0.87125 -3.69,-1.3325 -5.99625,-1.3325 -2.1525,0 -5.27875,0.46125 -7.995,2.87 -2.255,1.99875 -3.84375,5.125 -3.84375,9.02 0,4.15125 1.845,6.91875 3.53625,8.5075 1.99875,1.89625 5.07375,3.22875 8.55875,3.22875 2.5625,0 4.51,-0.76875 5.74,-1.38375 l 0,-6.09875 c -1.69125,1.5375 -3.53625,1.9475 -4.92,1.9475 -3.74125,0 -6.4575,-2.665 -6.4575,-6.30375 0,-3.22875 2.10125,-6.2525 6.2525,-6.2525 2.1525,0 3.7925,0.7175 5.125,1.9475 l 0,-6.15 z"
           style=""
           id="path4887" />
        <path
           d="m 695.47354,403.08818 0,-5.33 -4.305,0 0,-7.585 -6.2525,0 0,7.585 -2.46,0 0,5.33 2.46,0 0,16.86125 6.2525,0 0,-16.86125 4.305,0 z"
           style=""
           id="path4889" />
        <path
           d="m 581.61366,464.69068 c -2.10125,-3.28 -5.4325,-3.5875 -7.12375,-3.5875 -6.56,0 -11.01875,5.2275 -11.01875,11.7875 0,6.50875 4.51,11.83875 11.32625,11.83875 1.58875,0 4.56125,-0.35875 6.81625,-3.5875 l 0,2.87 6.2525,0 0,-37.36125 -6.2525,0 0,18.04 z m -5.535,1.9475 c 3.5875,0 6.15,2.71625 6.15,6.2525 0,3.53625 -2.5625,6.30375 -6.15,6.30375 -3.5875,0 -6.15,-2.7675 -6.15,-6.30375 0,-3.53625 2.5625,-6.2525 6.15,-6.2525 z"
           style=""
           id="path4891" />
        <path
           d="m 609.86843,476.88818 c -1.025,1.79375 -2.81875,2.92125 -5.17625,2.92125 -2.40875,0 -3.7925,-1.17875 -4.45875,-2.10125 -0.7175,-0.97375 -1.07625,-2.40875 -1.07625,-3.74125 l 16.605,0 0,-0.5125 c 0,-2.40875 -0.3075,-5.89375 -2.665,-8.7125 -1.5375,-1.845 -4.15125,-3.63875 -8.66125,-3.63875 -2.665,0 -5.74,0.56375 -8.35375,3.12625 -1.58875,1.58875 -3.3825,4.305 -3.3825,8.7125 0,3.485 1.025,6.355 3.485,8.66125 2.20375,2.10125 4.92,3.12625 8.5075,3.12625 7.73875,0 10.25,-5.27875 10.91625,-6.91875 l -5.74,-0.9225 z m -10.50625,-6.91875 c 0.5125,-2.9725 2.92125,-4.45875 5.2275,-4.45875 2.30625,0 4.76625,1.435 5.27875,4.45875 l -10.50625,0 z"
           style=""
           id="path4893" />
        <path
           d="m 617.18276,461.82068 11.1725,22.19125 3.28,0 11.1725,-22.19125 -6.97,0 -5.8425,12.505 -5.8425,-12.505 -6.97,0 z"
           style=""
           id="path4895" />
        <path
           d="m 660.54747,463.46068 c -2.81875,-2.1525 -5.4325,-2.3575 -7.0725,-2.3575 -1.79375,0 -4.04875,0.205 -5.79125,1.58875 -1.28125,1.07625 -2.30625,2.87 -2.30625,5.0225 0,1.79375 0.66625,3.1775 1.69125,4.25375 1.3325,1.38375 3.1775,2.10125 4.76625,2.665 l 1.435,0.5125 c 0.82,0.3075 1.9475,0.87125 1.9475,2.255 0,1.5375 -1.3325,2.40875 -3.075,2.40875 -1.845,0 -3.69,-1.1275 -4.92,-2.5625 l -3.28,3.7925 c 1.38375,1.48625 3.9975,3.69 8.61,3.69 2.71625,0 4.86875,-0.7175 6.6625,-2.3575 1.79375,-1.64 2.46,-3.63875 2.46,-5.6375 0,-1.435 -0.46125,-2.7675 -1.1275,-3.69 -1.28125,-1.7425 -3.895,-2.61375 -5.6375,-3.1775 l -1.48625,-0.46125 c -1.7425,-0.56375 -1.99875,-1.435 -1.99875,-1.99875 0,-1.07625 0.9225,-1.79375 2.40875,-1.79375 0.66625,0 2.1525,0.1025 3.63875,1.48625 l 3.075,-3.63875 z"
           style=""
           id="path4897" />
      </g>
    </g>
  </g>
</svg>
